<mxfile host="app.diagrams.net" modified="2023-10-18T07:34:25.914Z" agent="Mozilla/5.0 (Windows NT 10.0; Win64; x64; rv:106.0) Gecko/20100101 Firefox/106.0" etag="ScEiOjq2-pqt3JpO-OC3" version="22.0.4" type="github">
  <diagram name="第 1 页" id="YxR9NtceHSNPQlACsqAH">
    <mxGraphModel dx="3710" dy="-623" grid="1" gridSize="10" guides="1" tooltips="1" connect="1" arrows="1" fold="1" page="1" pageScale="1" pageWidth="827" pageHeight="1169" math="0" shadow="0">
      <root>
        <mxCell id="0" />
        <mxCell id="1" parent="0" />
        <UserObject label="" plantUmlData="{&quot;data&quot;:&quot;@startuml OnlineLearningPlatform\n\n!define User &lt;&lt;Actor&gt;&gt; : 大学生用户\n!define Admin &lt;&lt;Actor&gt;&gt; : 学习平台管理员\n!define System &lt;&lt;System&gt;&gt; : 在线学习平台系统\n\nUser --&gt; (注册)\nUser --&gt; (登录)\nUser --&gt; (浏览课程)\nUser --&gt; (购买课程)\nUser --&gt; (查看成绩)\nUser --&gt; (编辑个人信息)\n\nAdmin --&gt; (添加用户)\nAdmin --&gt; (编辑用户)\nAdmin --&gt; (删除用户)\nAdmin --&gt; (管理教育资源)\n\nUser --|&gt; System\nAdmin --|&gt; System\n\n(注册) -up-&gt; (登录) : &lt;&lt;include&gt;&gt; 注册后登录\n(浏览课程) -up-&gt; (在线课程管理) : &lt;&lt;include&gt;&gt; 选择课程\n(购买课程) -up-&gt; (在线课程购买) : &lt;&lt;include&gt;&gt; 处理付款\n(购买课程) -up-&gt; (用户账户管理) : &lt;&lt;include&gt;&gt; 更新权限\n(查看成绩) -up-&gt; (学生成绩) : &lt;&lt;include&gt;&gt; 查看成绩\n(编辑个人信息) -up-&gt; (用户账户管理) : &lt;&lt;include&gt;&gt; 编辑个人信息\n(管理教育资源) -up-&gt; (系统维护) : &lt;&lt;extend&gt;&gt; 确保资源可访问\n\n(在线课程管理) -down-&gt; (系统维护) : &lt;&lt;extend&gt;&gt; 管理课程\n(用户账户管理) -down-&gt; (系统维护) : &lt;&lt;extend&gt;&gt; 管理用户\n\n@enduml\n&quot;,&quot;format&quot;:&quot;svg&quot;}" id="3bJKWBTT_QmVk4gQoxYi-1">
          <mxCell style="shape=image;noLabel=1;verticalAlign=top;aspect=fixed;imageAspect=0;image=data:image/svg+xml,PD94bWwgdmVyc2lvbj0iMS4wIiBlbmNvZGluZz0idXMtYXNjaWkiIHN0YW5kYWxvbmU9Im5vIj8+PHN2ZyB4bWxucz0iaHR0cDovL3d3dy53My5vcmcvMjAwMC9zdmciIHhtbG5zOnhsaW5rPSJodHRwOi8vd3d3LnczLm9yZy8xOTk5L3hsaW5rIiBjb250ZW50U3R5bGVUeXBlPSJ0ZXh0L2NzcyIgaGVpZ2h0PSIxNjZweCIgcHJlc2VydmVBc3BlY3RSYXRpbz0ibm9uZSIgc3R5bGU9IndpZHRoOjM4OHB4O2hlaWdodDoxNjZweDtiYWNrZ3JvdW5kOiMwMDAwMDA7IiB2ZXJzaW9uPSIxLjEiIHZpZXdCb3g9IjAgMCAzODggMTY2IiB3aWR0aD0iMzg4cHgiIHpvb21BbmRQYW49Im1hZ25pZnkiPjxkZWZzLz48Zz48cmVjdCBmaWxsPSIjMTYxMDEyIiBoZWlnaHQ9IjEiIHN0eWxlPSJzdHJva2U6IzE2MTAxMjtzdHJva2Utd2lkdGg6MS4wOyIgd2lkdGg9IjEiIHg9IjAiIHk9IjAiLz48dGV4dCBmaWxsPSIjMzNGRjAyIiBmb250LWZhbWlseT0ic2Fucy1zZXJpZiIgZm9udC1zaXplPSIxMiIgZm9udC1zdHlsZT0iaXRhbGljIiBmb250LXdlaWdodD0iYm9sZCIgbGVuZ3RoQWRqdXN0PSJzcGFjaW5nIiB0ZXh0TGVuZ3RoPSIxMTMiIHg9IjUiIHk9IjE3Ij5QbGFudFVNTCAxLjIwMjMuMTA8L3RleHQ+PHRleHQgZmlsbD0iIzMzRkYwMiIgZm9udC1mYW1pbHk9InNhbnMtc2VyaWYiIGZvbnQtc2l6ZT0iMTIiIGZvbnQtc3R5bGU9Iml0YWxpYyIgZm9udC13ZWlnaHQ9ImJvbGQiIGxlbmd0aEFkanVzdD0ic3BhY2luZyIgdGV4dExlbmd0aD0iNiIgeD0iNSIgeT0iMjkuODQzOCI+JiMxNjA7PC90ZXh0Pjx0ZXh0IGZpbGw9IiMzM0ZGMDIiIGZvbnQtZmFtaWx5PSJzYW5zLXNlcmlmIiBmb250LXNpemU9IjEyIiBmb250LXN0eWxlPSJpdGFsaWMiIGZvbnQtd2VpZ2h0PSJib2xkIiBsZW5ndGhBZGp1c3Q9InNwYWNpbmciIHRleHRMZW5ndGg9IjM3NCIgeD0iNSIgeT0iNDIuNjg3NSI+Jmx0O2ImZ3Q7VGhpcyB2ZXJzaW9uIG9mIFBsYW50VU1MIGlzIDk3IGRheXMgb2xkLCBzbyB5b3Ugc2hvdWxkPC90ZXh0Pjx0ZXh0IGZpbGw9IiMzM0ZGMDIiIGZvbnQtZmFtaWx5PSJzYW5zLXNlcmlmIiBmb250LXNpemU9IjEyIiBmb250LXN0eWxlPSJpdGFsaWMiIGZvbnQtd2VpZ2h0PSJib2xkIiBsZW5ndGhBZGp1c3Q9InNwYWNpbmciIHRleHRMZW5ndGg9IjM3MCIgeD0iNSIgeT0iNTUuNTMxMyI+Jmx0O2ImZ3Q7Y29uc2lkZXIgdXBncmFkaW5nIGZyb20gaHR0cHM6Ly9wbGFudHVtbC5jb20vZG93bmxvYWQ8L3RleHQ+PHJlY3QgZmlsbD0iIzMzRkYwMiIgaGVpZ2h0PSIxOS45ODQ0IiBzdHlsZT0ic3Ryb2tlOiMzM0ZGMDI7c3Ryb2tlLXdpZHRoOjEuMDsiIHdpZHRoPSIxNjYiIHg9IjUiIHk9IjY0LjM3NSIvPjx0ZXh0IGZpbGw9IiMwMDAwMDAiIGZvbnQtZmFtaWx5PSJzYW5zLXNlcmlmIiBmb250LXNpemU9IjE0IiBmb250LXdlaWdodD0iYm9sZCIgbGVuZ3RoQWRqdXN0PSJzcGFjaW5nIiB0ZXh0TGVuZ3RoPSIxNjQiIHg9IjYiIHk9Ijc5LjM3NSI+W0Zyb20gc3RyaW5nIChsaW5lIDYpIF08L3RleHQ+PHRleHQgZmlsbD0iIzMzRkYwMiIgZm9udC1mYW1pbHk9InNhbnMtc2VyaWYiIGZvbnQtc2l6ZT0iMTQiIGZvbnQtd2VpZ2h0PSJib2xkIiBsZW5ndGhBZGp1c3Q9InNwYWNpbmciIHRleHRMZW5ndGg9IjciIHg9IjUiIHk9Ijk4LjM1OTQiPiYjMTYwOzwvdGV4dD48dGV4dCBmaWxsPSIjMzNGRjAyIiBmb250LWZhbWlseT0ic2Fucy1zZXJpZiIgZm9udC1zaXplPSIxNCIgZm9udC13ZWlnaHQ9ImJvbGQiIGxlbmd0aEFkanVzdD0ic3BhY2luZyIgdGV4dExlbmd0aD0iNjQiIHg9IjUiIHk9IjExMy4zNDM4Ij5Ac3RhcnR1bWw8L3RleHQ+PHRleHQgZmlsbD0iIzMzRkYwMiIgZm9udC1mYW1pbHk9InNhbnMtc2VyaWYiIGZvbnQtc2l6ZT0iMTQiIGZvbnQtd2VpZ2h0PSJib2xkIiBsZW5ndGhBZGp1c3Q9InNwYWNpbmciIHRleHRMZW5ndGg9IjciIHg9IjUiIHk9IjEyOC4zMjgxIj4mIzE2MDs8L3RleHQ+PHRleHQgZmlsbD0iIzMzRkYwMiIgZm9udC1mYW1pbHk9InNhbnMtc2VyaWYiIGZvbnQtc2l6ZT0iMTQiIGZvbnQtd2VpZ2h0PSJib2xkIiBsZW5ndGhBZGp1c3Q9InNwYWNpbmciIHRleHQtZGVjb3JhdGlvbj0id2F2eSB1bmRlcmxpbmUiIHRleHRMZW5ndGg9IjIzMyIgeD0iNSIgeT0iMTQzLjMxMjUiPiZsdDsmbHQ7QWN0b3ImZ3Q7Jmd0OyA6ICYjMjI4MjM7JiMyMzM5ODsmIzI5OTgzOyYjMjk5OTI7JiMyNTE0MzsgLS0mZ3Q7ICgmIzI3ODgwOyYjMjA4NzY7KTwvdGV4dD48dGV4dCBmaWxsPSIjRkYwMDAwIiBmb250LWZhbWlseT0ic2Fucy1zZXJpZiIgZm9udC1zaXplPSIxNCIgZm9udC13ZWlnaHQ9ImJvbGQiIGxlbmd0aEFkanVzdD0ic3BhY2luZyIgdGV4dExlbmd0aD0iOTEiIHg9IjEyIiB5PSIxNTguMjk2OSI+U3ludGF4IEVycm9yPzwvdGV4dD48IS0tU1JDPVtaTDlSSmk5RzVGb19nb1hfeWo0RGM4UTRESFhORzZqMjhpTm1ZOWh1dU9FRzJhUEEwV1dIMFlKOG1xV1hLZUFxMmZsZmxSVmltamUzak9LUS1NY1FFSkVKU3NQa1cxVEVlZ0IwNzJVNTFDRG51S1dnZFdZNWM0QzZUdGZ1c0FNYjlZdHJZSkgzV0pLbnBDVVllZlN2eDFocDVmdkZTNjVDYkpRTGl4WE9UVlg3YnljSzRCQzR5MEVBVWZ6Z0l1emtlYkV6WVAyejFpazZjMENvd1VGaUd6MjVxOWdFbHlma1g0bUJQYXlvSG1sUXB4am5LbnFReV80a0pmZWxqOXVkYWFwcldTVnZpczhrWWlSN2d3NWZuaDlEUmFQMVhFMUdxQ3JxZDZqMTQ0N3QwOEctMG9vckxoTUVkeThFWTlIaHZrc3hFU3FHSkd1d0xyLTVyY2F2V2J5NFJHOVhzRklQQW1xaEpPd0JZZjdKRDJ6T3NHODlvdXltSGp3OERiaDg3cTFPUURqZFROckZ5V0RXODYtVVZZUDBzM1IxZE9uYlJVWEx5aFJ1bW1HSUNqTWt6Vk5WWDNvaGYzOGNaUmpMSktSVTFmckR4N1V3MFJWYUJXN29BdGhfSk5SNW9BekVuejEtcWJITklRdTNMaTk1SVgzdjd3VXNPWW1SbUNVNWFRYWlMcS1BTFI1VkJvbVZGblZfeXhFdmN4UnlCamRWMVRKVl0tLT48L2c+PC9zdmc+;" vertex="1" parent="1">
            <mxGeometry x="-1654" y="1330" width="388" height="166" as="geometry" />
          </mxCell>
        </UserObject>
        <UserObject label="" plantUmlData="{&quot;data&quot;:&quot;@startuml OnlineLearningPlatform_Activity\n\n&#39; 定义关键活动\nstart\n\n:大学生用户登录;\nif (登录成功?) then (是)\n  :浏览在线课程;\n  :选择课程;\n  if (选择成功?) then (是)\n    :购买课程;\n    if (购买成功?) then (是)\n      :分配课程权限;\n    else (否)\n      :处理付款问题;\n    endif\n    :学习课程;\n    if (学习完成?) then (是)\n      :提交作业;\n    else (否)\n      :继续学习;\n    endif\n  else (否)\n    :返回在线课程;\n  endif\n  :查看学生成绩;\nelse (否)\n  :处理登录问题;\nendif\n\n:学习平台管理员登录;\nif (登录成功?) then (是)\n  :在线课程管理;\n  :管理用户账户;\n  :管理教育资源;\nelse (否)\n  :处理登录问题;\nendif\n\nstop\n\n@enduml\n&quot;,&quot;format&quot;:&quot;svg&quot;}" id="3bJKWBTT_QmVk4gQoxYi-2">
          <mxCell style="shape=image;noLabel=1;verticalAlign=top;aspect=fixed;imageAspect=0;image=data:image/svg+xml,PD94bWwgdmVyc2lvbj0iMS4wIiBlbmNvZGluZz0idXMtYXNjaWkiIHN0YW5kYWxvbmU9Im5vIj8+PHN2ZyB4bWxucz0iaHR0cDovL3d3dy53My5vcmcvMjAwMC9zdmciIHhtbG5zOnhsaW5rPSJodHRwOi8vd3d3LnczLm9yZy8xOTk5L3hsaW5rIiBjb250ZW50U3R5bGVUeXBlPSJ0ZXh0L2NzcyIgaGVpZ2h0PSIxMDM3cHgiIHByZXNlcnZlQXNwZWN0UmF0aW89Im5vbmUiIHN0eWxlPSJ3aWR0aDo0NzBweDtoZWlnaHQ6MTAzN3B4O2JhY2tncm91bmQ6I0ZGRkZGRjsiIHZlcnNpb249IjEuMSIgdmlld0JveD0iMCAwIDQ3MCAxMDM3IiB3aWR0aD0iNDcwcHgiIHpvb21BbmRQYW49Im1hZ25pZnkiPjxkZWZzLz48Zz48ZWxsaXBzZSBjeD0iMzA3LjUiIGN5PSIyMCIgZmlsbD0iIzIyMjIyMiIgcng9IjEwIiByeT0iMTAiIHN0eWxlPSJzdHJva2U6IzIyMjIyMjtzdHJva2Utd2lkdGg6MS4wOyIvPjxyZWN0IGZpbGw9IiNGMUYxRjEiIGhlaWdodD0iMzIuODQzOCIgcng9IjEyLjUiIHJ5PSIxMi41IiBzdHlsZT0ic3Ryb2tlOiMxODE4MTg7c3Ryb2tlLXdpZHRoOjAuNTsiIHdpZHRoPSIxMDQiIHg9IjI1NS41IiB5PSI1MCIvPjx0ZXh0IGZpbGw9IiMwMDAwMDAiIGZvbnQtZmFtaWx5PSJzYW5zLXNlcmlmIiBmb250LXNpemU9IjEyIiBsZW5ndGhBZGp1c3Q9InNwYWNpbmciIHRleHRMZW5ndGg9Ijg0IiB4PSIyNjUuNSIgeT0iNzEuMzQzOCI+JiMyMjgyMzsmIzIzMzk4OyYjMjk5ODM7JiMyOTk5MjsmIzI1MTQzOyYjMzAzMzE7JiMyNDQwNTs8L3RleHQ+PHBvbHlnb24gZmlsbD0iI0YxRjFGMSIgcG9pbnRzPSIyODIuNSwxMDIuODQzOCwzMzIuNSwxMDIuODQzOCwzNDQuNSwxMTQuODQzOCwzMzIuNSwxMjYuODQzOCwyODIuNSwxMjYuODQzOCwyNzAuNSwxMTQuODQzOCwyODIuNSwxMDIuODQzOCIgc3R5bGU9InN0cm9rZTojMTgxODE4O3N0cm9rZS13aWR0aDowLjU7Ii8+PHRleHQgZmlsbD0iIzAwMDAwMCIgZm9udC1mYW1pbHk9InNhbnMtc2VyaWYiIGZvbnQtc2l6ZT0iMTEiIGxlbmd0aEFkanVzdD0ic3BhY2luZyIgdGV4dExlbmd0aD0iNTAiIHg9IjI4Mi41IiB5PSIxMTkuMzU1NSI+JiMzMDMzMTsmIzI0NDA1OyYjMjUxMDQ7JiMyMTE1MTs/PC90ZXh0Pjx0ZXh0IGZpbGw9IiMwMDAwMDAiIGZvbnQtZmFtaWx5PSJzYW5zLXNlcmlmIiBmb250LXNpemU9IjExIiBsZW5ndGhBZGp1c3Q9InNwYWNpbmciIHRleHRMZW5ndGg9IjExIiB4PSIyNTkuNSIgeT0iMTEzLjQ2ODgiPiYjMjYxNTk7PC90ZXh0Pjx0ZXh0IGZpbGw9IiMwMDAwMDAiIGZvbnQtZmFtaWx5PSJzYW5zLXNlcmlmIiBmb250LXNpemU9IjExIiBsZW5ndGhBZGp1c3Q9InNwYWNpbmciIHRleHRMZW5ndGg9IjExIiB4PSIzNDQuNSIgeT0iMTEzLjQ2ODgiPiYjMjE1NDI7PC90ZXh0PjxyZWN0IGZpbGw9IiNGMUYxRjEiIGhlaWdodD0iMzIuODQzOCIgcng9IjEyLjUiIHJ5PSIxMi41IiBzdHlsZT0ic3Ryb2tlOiMxODE4MTg7c3Ryb2tlLXdpZHRoOjAuNTsiIHdpZHRoPSI5MiIgeD0iMTU2IiB5PSIxMzYuODQzOCIvPjx0ZXh0IGZpbGw9IiMwMDAwMDAiIGZvbnQtZmFtaWx5PSJzYW5zLXNlcmlmIiBmb250LXNpemU9IjEyIiBsZW5ndGhBZGp1c3Q9InNwYWNpbmciIHRleHRMZW5ndGg9IjcyIiB4PSIxNjYiIHk9IjE1OC4xODc1Ij4mIzI3OTgzOyYjMzUyNzI7JiMyMjMxMjsmIzMyNDQ3OyYjMzU4Mzg7JiMzMTI0Mzs8L3RleHQ+PHJlY3QgZmlsbD0iI0YxRjFGMSIgaGVpZ2h0PSIzMi44NDM4IiByeD0iMTIuNSIgcnk9IjEyLjUiIHN0eWxlPSJzdHJva2U6IzE4MTgxODtzdHJva2Utd2lkdGg6MC41OyIgd2lkdGg9IjY4IiB4PSIxNjgiIHk9IjE4OS42ODc1Ii8+PHRleHQgZmlsbD0iIzAwMDAwMCIgZm9udC1mYW1pbHk9InNhbnMtc2VyaWYiIGZvbnQtc2l6ZT0iMTIiIGxlbmd0aEFkanVzdD0ic3BhY2luZyIgdGV4dExlbmd0aD0iNDgiIHg9IjE3OCIgeT0iMjExLjAzMTMiPiYjMzY4NzM7JiMyNTMyMTsmIzM1ODM4OyYjMzEyNDM7PC90ZXh0Pjxwb2x5Z29uIGZpbGw9IiNGMUYxRjEiIHBvaW50cz0iMTc3LDI0Mi41MzEzLDIyNywyNDIuNTMxMywyMzksMjU0LjUzMTMsMjI3LDI2Ni41MzEzLDE3NywyNjYuNTMxMywxNjUsMjU0LjUzMTMsMTc3LDI0Mi41MzEzIiBzdHlsZT0ic3Ryb2tlOiMxODE4MTg7c3Ryb2tlLXdpZHRoOjAuNTsiLz48dGV4dCBmaWxsPSIjMDAwMDAwIiBmb250LWZhbWlseT0ic2Fucy1zZXJpZiIgZm9udC1zaXplPSIxMSIgbGVuZ3RoQWRqdXN0PSJzcGFjaW5nIiB0ZXh0TGVuZ3RoPSI1MCIgeD0iMTc3IiB5PSIyNTkuMDQzIj4mIzM2ODczOyYjMjUzMjE7JiMyNTEwNDsmIzIxMTUxOz88L3RleHQ+PHRleHQgZmlsbD0iIzAwMDAwMCIgZm9udC1mYW1pbHk9InNhbnMtc2VyaWYiIGZvbnQtc2l6ZT0iMTEiIGxlbmd0aEFkanVzdD0ic3BhY2luZyIgdGV4dExlbmd0aD0iMTEiIHg9IjE1NCIgeT0iMjUzLjE1NjMiPiYjMjYxNTk7PC90ZXh0Pjx0ZXh0IGZpbGw9IiMwMDAwMDAiIGZvbnQtZmFtaWx5PSJzYW5zLXNlcmlmIiBmb250LXNpemU9IjExIiBsZW5ndGhBZGp1c3Q9InNwYWNpbmciIHRleHRMZW5ndGg9IjExIiB4PSIyMzkiIHk9IjI1My4xNTYzIj4mIzIxNTQyOzwvdGV4dD48cmVjdCBmaWxsPSIjRjFGMUYxIiBoZWlnaHQ9IjMyLjg0MzgiIHJ4PSIxMi41IiByeT0iMTIuNSIgc3R5bGU9InN0cm9rZTojMTgxODE4O3N0cm9rZS13aWR0aDowLjU7IiB3aWR0aD0iNjgiIHg9Ijc5IiB5PSIyNzYuNTMxMyIvPjx0ZXh0IGZpbGw9IiMwMDAwMDAiIGZvbnQtZmFtaWx5PSJzYW5zLXNlcmlmIiBmb250LXNpemU9IjEyIiBsZW5ndGhBZGp1c3Q9InNwYWNpbmciIHRleHRMZW5ndGg9IjQ4IiB4PSI4OSIgeT0iMjk3Ljg3NSI+JiMzNjE0MTsmIzIwMDgwOyYjMzU4Mzg7JiMzMTI0Mzs8L3RleHQ+PHBvbHlnb24gZmlsbD0iI0YxRjFGMSIgcG9pbnRzPSI4OCwzMjkuMzc1LDEzOCwzMjkuMzc1LDE1MCwzNDEuMzc1LDEzOCwzNTMuMzc1LDg4LDM1My4zNzUsNzYsMzQxLjM3NSw4OCwzMjkuMzc1IiBzdHlsZT0ic3Ryb2tlOiMxODE4MTg7c3Ryb2tlLXdpZHRoOjAuNTsiLz48dGV4dCBmaWxsPSIjMDAwMDAwIiBmb250LWZhbWlseT0ic2Fucy1zZXJpZiIgZm9udC1zaXplPSIxMSIgbGVuZ3RoQWRqdXN0PSJzcGFjaW5nIiB0ZXh0TGVuZ3RoPSI1MCIgeD0iODgiIHk9IjM0NS44ODY3Ij4mIzM2MTQxOyYjMjAwODA7JiMyNTEwNDsmIzIxMTUxOz88L3RleHQ+PHRleHQgZmlsbD0iIzAwMDAwMCIgZm9udC1mYW1pbHk9InNhbnMtc2VyaWYiIGZvbnQtc2l6ZT0iMTEiIGxlbmd0aEFkanVzdD0ic3BhY2luZyIgdGV4dExlbmd0aD0iMTEiIHg9IjY1IiB5PSIzNDAiPiYjMjYxNTk7PC90ZXh0Pjx0ZXh0IGZpbGw9IiMwMDAwMDAiIGZvbnQtZmFtaWx5PSJzYW5zLXNlcmlmIiBmb250LXNpemU9IjExIiBsZW5ndGhBZGp1c3Q9InNwYWNpbmciIHRleHRMZW5ndGg9IjExIiB4PSIxNTAiIHk9IjM0MCI+JiMyMTU0Mjs8L3RleHQ+PHJlY3QgZmlsbD0iI0YxRjFGMSIgaGVpZ2h0PSIzMi44NDM4IiByeD0iMTIuNSIgcnk9IjEyLjUiIHN0eWxlPSJzdHJva2U6IzE4MTgxODtzdHJva2Utd2lkdGg6MC41OyIgd2lkdGg9IjkyIiB4PSIxMSIgeT0iMzYzLjM3NSIvPjx0ZXh0IGZpbGw9IiMwMDAwMDAiIGZvbnQtZmFtaWx5PSJzYW5zLXNlcmlmIiBmb250LXNpemU9IjEyIiBsZW5ndGhBZGp1c3Q9InNwYWNpbmciIHRleHRMZW5ndGg9IjcyIiB4PSIyMSIgeT0iMzg0LjcxODgiPiYjMjA5OTg7JiMzNzE5NzsmIzM1ODM4OyYjMzEyNDM7JiMyNjQzNTsmIzM4NDgwOzwvdGV4dD48cmVjdCBmaWxsPSIjRjFGMUYxIiBoZWlnaHQ9IjMyLjg0MzgiIHJ4PSIxMi41IiByeT0iMTIuNSIgc3R5bGU9InN0cm9rZTojMTgxODE4O3N0cm9rZS13aWR0aDowLjU7IiB3aWR0aD0iOTIiIHg9IjEyMyIgeT0iMzYzLjM3NSIvPjx0ZXh0IGZpbGw9IiMwMDAwMDAiIGZvbnQtZmFtaWx5PSJzYW5zLXNlcmlmIiBmb250LXNpemU9IjEyIiBsZW5ndGhBZGp1c3Q9InNwYWNpbmciIHRleHRMZW5ndGg9IjcyIiB4PSIxMzMiIHk9IjM4NC43MTg4Ij4mIzIyNzg4OyYjMjk3MDI7JiMyMDE4NDsmIzI3NDU0OyYjMzgzODI7JiMzOTA2NDs8L3RleHQ+PHBvbHlnb24gZmlsbD0iI0YxRjFGMSIgcG9pbnRzPSIxMTMsNDAyLjIxODgsMTI1LDQxNC4yMTg4LDExMyw0MjYuMjE4OCwxMDEsNDE0LjIxODgsMTEzLDQwMi4yMTg4IiBzdHlsZT0ic3Ryb2tlOiMxODE4MTg7c3Ryb2tlLXdpZHRoOjAuNTsiLz48cmVjdCBmaWxsPSIjRjFGMUYxIiBoZWlnaHQ9IjMyLjg0MzgiIHJ4PSIxMi41IiByeT0iMTIuNSIgc3R5bGU9InN0cm9rZTojMTgxODE4O3N0cm9rZS13aWR0aDowLjU7IiB3aWR0aD0iNjgiIHg9Ijc5IiB5PSI0NDYuMjE4OCIvPjx0ZXh0IGZpbGw9IiMwMDAwMDAiIGZvbnQtZmFtaWx5PSJzYW5zLXNlcmlmIiBmb250LXNpemU9IjEyIiBsZW5ndGhBZGp1c3Q9InNwYWNpbmciIHRleHRMZW5ndGg9IjQ4IiB4PSI4OSIgeT0iNDY3LjU2MjUiPiYjMjMzOTg7JiMyMDA2NDsmIzM1ODM4OyYjMzEyNDM7PC90ZXh0Pjxwb2x5Z29uIGZpbGw9IiNGMUYxRjEiIHBvaW50cz0iODgsNDk5LjA2MjUsMTM4LDQ5OS4wNjI1LDE1MCw1MTEuMDYyNSwxMzgsNTIzLjA2MjUsODgsNTIzLjA2MjUsNzYsNTExLjA2MjUsODgsNDk5LjA2MjUiIHN0eWxlPSJzdHJva2U6IzE4MTgxODtzdHJva2Utd2lkdGg6MC41OyIvPjx0ZXh0IGZpbGw9IiMwMDAwMDAiIGZvbnQtZmFtaWx5PSJzYW5zLXNlcmlmIiBmb250LXNpemU9IjExIiBsZW5ndGhBZGp1c3Q9InNwYWNpbmciIHRleHRMZW5ndGg9IjUwIiB4PSI4OCIgeT0iNTE1LjU3NDIiPiYjMjMzOTg7JiMyMDA2NDsmIzIzNDM2OyYjMjUxMDQ7PzwvdGV4dD48dGV4dCBmaWxsPSIjMDAwMDAwIiBmb250LWZhbWlseT0ic2Fucy1zZXJpZiIgZm9udC1zaXplPSIxMSIgbGVuZ3RoQWRqdXN0PSJzcGFjaW5nIiB0ZXh0TGVuZ3RoPSIxMSIgeD0iNjUiIHk9IjUwOS42ODc1Ij4mIzI2MTU5OzwvdGV4dD48dGV4dCBmaWxsPSIjMDAwMDAwIiBmb250LWZhbWlseT0ic2Fucy1zZXJpZiIgZm9udC1zaXplPSIxMSIgbGVuZ3RoQWRqdXN0PSJzcGFjaW5nIiB0ZXh0TGVuZ3RoPSIxMSIgeD0iMTUwIiB5PSI1MDkuNjg3NSI+JiMyMTU0Mjs8L3RleHQ+PHJlY3QgZmlsbD0iI0YxRjFGMSIgaGVpZ2h0PSIzMi44NDM4IiByeD0iMTIuNSIgcnk9IjEyLjUiIHN0eWxlPSJzdHJva2U6IzE4MTgxODtzdHJva2Utd2lkdGg6MC41OyIgd2lkdGg9IjY4IiB4PSIzMiIgeT0iNTMzLjA2MjUiLz48dGV4dCBmaWxsPSIjMDAwMDAwIiBmb250LWZhbWlseT0ic2Fucy1zZXJpZiIgZm9udC1zaXplPSIxMiIgbGVuZ3RoQWRqdXN0PSJzcGFjaW5nIiB0ZXh0TGVuZ3RoPSI0OCIgeD0iNDIiIHk9IjU1NC40MDYzIj4mIzI1NTUyOyYjMjAxMzI7JiMyMDMxNjsmIzE5OTk0OzwvdGV4dD48cmVjdCBmaWxsPSIjRjFGMUYxIiBoZWlnaHQ9IjMyLjg0MzgiIHJ4PSIxMi41IiByeT0iMTIuNSIgc3R5bGU9InN0cm9rZTojMTgxODE4O3N0cm9rZS13aWR0aDowLjU7IiB3aWR0aD0iNjgiIHg9IjEyNiIgeT0iNTMzLjA2MjUiLz48dGV4dCBmaWxsPSIjMDAwMDAwIiBmb250LWZhbWlseT0ic2Fucy1zZXJpZiIgZm9udC1zaXplPSIxMiIgbGVuZ3RoQWRqdXN0PSJzcGFjaW5nIiB0ZXh0TGVuZ3RoPSI0OCIgeD0iMTM2IiB5PSI1NTQuNDA2MyI+JiMzMjQ4NzsmIzMyNDkzOyYjMjMzOTg7JiMyMDA2NDs8L3RleHQ+PHBvbHlnb24gZmlsbD0iI0YxRjFGMSIgcG9pbnRzPSIxMTMsNTcxLjkwNjMsMTI1LDU4My45MDYzLDExMyw1OTUuOTA2MywxMDEsNTgzLjkwNjMsMTEzLDU3MS45MDYzIiBzdHlsZT0ic3Ryb2tlOiMxODE4MTg7c3Ryb2tlLXdpZHRoOjAuNTsiLz48cmVjdCBmaWxsPSIjRjFGMUYxIiBoZWlnaHQ9IjMyLjg0MzgiIHJ4PSIxMi41IiByeT0iMTIuNSIgc3R5bGU9InN0cm9rZTojMTgxODE4O3N0cm9rZS13aWR0aDowLjU7IiB3aWR0aD0iOTIiIHg9IjI0NSIgeT0iMjc2LjUzMTMiLz48dGV4dCBmaWxsPSIjMDAwMDAwIiBmb250LWZhbWlseT0ic2Fucy1zZXJpZiIgZm9udC1zaXplPSIxMiIgbGVuZ3RoQWRqdXN0PSJzcGFjaW5nIiB0ZXh0TGVuZ3RoPSI3MiIgeD0iMjU1IiB5PSIyOTcuODc1Ij4mIzM2ODIwOyYjMjIyMzg7JiMyMjMxMjsmIzMyNDQ3OyYjMzU4Mzg7JiMzMTI0Mzs8L3RleHQ+PHBvbHlnb24gZmlsbD0iI0YxRjFGMSIgcG9pbnRzPSIyMDIsNjAxLjkwNjMsMjE0LDYxMy45MDYzLDIwMiw2MjUuOTA2MywxOTAsNjEzLjkwNjMsMjAyLDYwMS45MDYzIiBzdHlsZT0ic3Ryb2tlOiMxODE4MTg7c3Ryb2tlLXdpZHRoOjAuNTsiLz48cmVjdCBmaWxsPSIjRjFGMUYxIiBoZWlnaHQ9IjMyLjg0MzgiIHJ4PSIxMi41IiByeT0iMTIuNSIgc3R5bGU9InN0cm9rZTojMTgxODE4O3N0cm9rZS13aWR0aDowLjU7IiB3aWR0aD0iOTIiIHg9IjE1NiIgeT0iNjQ1LjkwNjMiLz48dGV4dCBmaWxsPSIjMDAwMDAwIiBmb250LWZhbWlseT0ic2Fucy1zZXJpZiIgZm9udC1zaXplPSIxMiIgbGVuZ3RoQWRqdXN0PSJzcGFjaW5nIiB0ZXh0TGVuZ3RoPSI3MiIgeD0iMTY2IiB5PSI2NjcuMjUiPiYjMjY1OTc7JiMzMDQ3NTsmIzIzMzk4OyYjMjk5ODM7JiMyNTEwNDsmIzMyNDg5OzwvdGV4dD48cmVjdCBmaWxsPSIjRjFGMUYxIiBoZWlnaHQ9IjMyLjg0MzgiIHJ4PSIxMi41IiByeT0iMTIuNSIgc3R5bGU9InN0cm9rZTojMTgxODE4O3N0cm9rZS13aWR0aDowLjU7IiB3aWR0aD0iOTIiIHg9IjM2NyIgeT0iMTM2Ljg0MzgiLz48dGV4dCBmaWxsPSIjMDAwMDAwIiBmb250LWZhbWlseT0ic2Fucy1zZXJpZiIgZm9udC1zaXplPSIxMiIgbGVuZ3RoQWRqdXN0PSJzcGFjaW5nIiB0ZXh0TGVuZ3RoPSI3MiIgeD0iMzc3IiB5PSIxNTguMTg3NSI+JiMyMjc4ODsmIzI5NzAyOyYjMzAzMzE7JiMyNDQwNTsmIzM4MzgyOyYjMzkwNjQ7PC90ZXh0Pjxwb2x5Z29uIGZpbGw9IiNGMUYxRjEiIHBvaW50cz0iMzA3LjUsNjg0Ljc1LDMxOS41LDY5Ni43NSwzMDcuNSw3MDguNzUsMjk1LjUsNjk2Ljc1LDMwNy41LDY4NC43NSIgc3R5bGU9InN0cm9rZTojMTgxODE4O3N0cm9rZS13aWR0aDowLjU7Ii8+PHJlY3QgZmlsbD0iI0YxRjFGMSIgaGVpZ2h0PSIzMi44NDM4IiByeD0iMTIuNSIgcnk9IjEyLjUiIHN0eWxlPSJzdHJva2U6IzE4MTgxODtzdHJva2Utd2lkdGg6MC41OyIgd2lkdGg9IjEyOCIgeD0iMjQzLjUiIHk9IjcyOC43NSIvPjx0ZXh0IGZpbGw9IiMwMDAwMDAiIGZvbnQtZmFtaWx5PSJzYW5zLXNlcmlmIiBmb250LXNpemU9IjEyIiBsZW5ndGhBZGp1c3Q9InNwYWNpbmciIHRleHRMZW5ndGg9IjEwOCIgeD0iMjUzLjUiIHk9Ijc1MC4wOTM4Ij4mIzIzMzk4OyYjMjAwNjQ7JiMyNDE3OTsmIzIxNDg4OyYjMzE2NDk7JiMyOTcwMjsmIzIxNTkyOyYjMzAzMzE7JiMyNDQwNTs8L3RleHQ+PHBvbHlnb24gZmlsbD0iI0YxRjFGMSIgcG9pbnRzPSIyODIuNSw3ODEuNTkzOCwzMzIuNSw3ODEuNTkzOCwzNDQuNSw3OTMuNTkzOCwzMzIuNSw4MDUuNTkzOCwyODIuNSw4MDUuNTkzOCwyNzAuNSw3OTMuNTkzOCwyODIuNSw3ODEuNTkzOCIgc3R5bGU9InN0cm9rZTojMTgxODE4O3N0cm9rZS13aWR0aDowLjU7Ii8+PHRleHQgZmlsbD0iIzAwMDAwMCIgZm9udC1mYW1pbHk9InNhbnMtc2VyaWYiIGZvbnQtc2l6ZT0iMTEiIGxlbmd0aEFkanVzdD0ic3BhY2luZyIgdGV4dExlbmd0aD0iNTAiIHg9IjI4Mi41IiB5PSI3OTguMTA1NSI+JiMzMDMzMTsmIzI0NDA1OyYjMjUxMDQ7JiMyMTE1MTs/PC90ZXh0Pjx0ZXh0IGZpbGw9IiMwMDAwMDAiIGZvbnQtZmFtaWx5PSJzYW5zLXNlcmlmIiBmb250LXNpemU9IjExIiBsZW5ndGhBZGp1c3Q9InNwYWNpbmciIHRleHRMZW5ndGg9IjExIiB4PSIyNTkuNSIgeT0iNzkyLjIxODgiPiYjMjYxNTk7PC90ZXh0Pjx0ZXh0IGZpbGw9IiMwMDAwMDAiIGZvbnQtZmFtaWx5PSJzYW5zLXNlcmlmIiBmb250LXNpemU9IjExIiBsZW5ndGhBZGp1c3Q9InNwYWNpbmciIHRleHRMZW5ndGg9IjExIiB4PSIzNDQuNSIgeT0iNzkyLjIxODgiPiYjMjE1NDI7PC90ZXh0PjxyZWN0IGZpbGw9IiNGMUYxRjEiIGhlaWdodD0iMzIuODQzOCIgcng9IjEyLjUiIHJ5PSIxMi41IiBzdHlsZT0ic3Ryb2tlOiMxODE4MTg7c3Ryb2tlLXdpZHRoOjAuNTsiIHdpZHRoPSI5MiIgeD0iMjA1LjUiIHk9IjgxNS41OTM4Ii8+PHRleHQgZmlsbD0iIzAwMDAwMCIgZm9udC1mYW1pbHk9InNhbnMtc2VyaWYiIGZvbnQtc2l6ZT0iMTIiIGxlbmd0aEFkanVzdD0ic3BhY2luZyIgdGV4dExlbmd0aD0iNzIiIHg9IjIxNS41IiB5PSI4MzYuOTM3NSI+JiMyMjMxMjsmIzMyNDQ3OyYjMzU4Mzg7JiMzMTI0MzsmIzMxNjQ5OyYjMjk3MDI7PC90ZXh0PjxyZWN0IGZpbGw9IiNGMUYxRjEiIGhlaWdodD0iMzIuODQzOCIgcng9IjEyLjUiIHJ5PSIxMi41IiBzdHlsZT0ic3Ryb2tlOiMxODE4MTg7c3Ryb2tlLXdpZHRoOjAuNTsiIHdpZHRoPSI5MiIgeD0iMjA1LjUiIHk9Ijg2OC40Mzc1Ii8+PHRleHQgZmlsbD0iIzAwMDAwMCIgZm9udC1mYW1pbHk9InNhbnMtc2VyaWYiIGZvbnQtc2l6ZT0iMTIiIGxlbmd0aEFkanVzdD0ic3BhY2luZyIgdGV4dExlbmd0aD0iNzIiIHg9IjIxNS41IiB5PSI4ODkuNzgxMyI+JiMzMTY0OTsmIzI5NzAyOyYjMjk5OTI7JiMyNTE0MzsmIzM2MTM0OyYjMjUxNDM7PC90ZXh0PjxyZWN0IGZpbGw9IiNGMUYxRjEiIGhlaWdodD0iMzIuODQzOCIgcng9IjEyLjUiIHJ5PSIxMi41IiBzdHlsZT0ic3Ryb2tlOiMxODE4MTg7c3Ryb2tlLXdpZHRoOjAuNTsiIHdpZHRoPSI5MiIgeD0iMjA1LjUiIHk9IjkyMS4yODEzIi8+PHRleHQgZmlsbD0iIzAwMDAwMCIgZm9udC1mYW1pbHk9InNhbnMtc2VyaWYiIGZvbnQtc2l6ZT0iMTIiIGxlbmd0aEFkanVzdD0ic3BhY2luZyIgdGV4dExlbmd0aD0iNzIiIHg9IjIxNS41IiB5PSI5NDIuNjI1Ij4mIzMxNjQ5OyYjMjk3MDI7JiMyNTk0NTsmIzMyOTQ2OyYjMzYxNjQ7JiMyODMwNDs8L3RleHQ+PHJlY3QgZmlsbD0iI0YxRjFGMSIgaGVpZ2h0PSIzMi44NDM4IiByeD0iMTIuNSIgcnk9IjEyLjUiIHN0eWxlPSJzdHJva2U6IzE4MTgxODtzdHJva2Utd2lkdGg6MC41OyIgd2lkdGg9IjkyIiB4PSIzMTcuNSIgeT0iODE1LjU5MzgiLz48dGV4dCBmaWxsPSIjMDAwMDAwIiBmb250LWZhbWlseT0ic2Fucy1zZXJpZiIgZm9udC1zaXplPSIxMiIgbGVuZ3RoQWRqdXN0PSJzcGFjaW5nIiB0ZXh0TGVuZ3RoPSI3MiIgeD0iMzI3LjUiIHk9IjgzNi45Mzc1Ij4mIzIyNzg4OyYjMjk3MDI7JiMzMDMzMTsmIzI0NDA1OyYjMzgzODI7JiMzOTA2NDs8L3RleHQ+PHBvbHlnb24gZmlsbD0iI0YxRjFGMSIgcG9pbnRzPSIzMDcuNSw5NjAuMTI1LDMxOS41LDk3Mi4xMjUsMzA3LjUsOTg0LjEyNSwyOTUuNSw5NzIuMTI1LDMwNy41LDk2MC4xMjUiIHN0eWxlPSJzdHJva2U6IzE4MTgxODtzdHJva2Utd2lkdGg6MC41OyIvPjxlbGxpcHNlIGN4PSIzMDcuNSIgY3k9IjEwMTUuMTI1IiBmaWxsPSJub25lIiByeD0iMTEiIHJ5PSIxMSIgc3R5bGU9InN0cm9rZTojMjIyMjIyO3N0cm9rZS13aWR0aDoxLjA7Ii8+PGVsbGlwc2UgY3g9IjMwNy41IiBjeT0iMTAxNS4xMjUiIGZpbGw9IiMyMjIyMjIiIHJ4PSI2IiByeT0iNiIgc3R5bGU9InN0cm9rZTojMTExMTExO3N0cm9rZS13aWR0aDoxLjA7Ii8+PGxpbmUgc3R5bGU9InN0cm9rZTojMTgxODE4O3N0cm9rZS13aWR0aDoxLjA7IiB4MT0iMzA3LjUiIHgyPSIzMDcuNSIgeTE9IjMwIiB5Mj0iNTAiLz48cG9seWdvbiBmaWxsPSIjMTgxODE4IiBwb2ludHM9IjMwMy41LDQwLDMwNy41LDUwLDMxMS41LDQwLDMwNy41LDQ0IiBzdHlsZT0ic3Ryb2tlOiMxODE4MTg7c3Ryb2tlLXdpZHRoOjEuMDsiLz48bGluZSBzdHlsZT0ic3Ryb2tlOiMxODE4MTg7c3Ryb2tlLXdpZHRoOjEuMDsiIHgxPSIyMDIiIHgyPSIyMDIiIHkxPSIxNjkuNjg3NSIgeTI9IjE4OS42ODc1Ii8+PHBvbHlnb24gZmlsbD0iIzE4MTgxOCIgcG9pbnRzPSIxOTgsMTc5LjY4NzUsMjAyLDE4OS42ODc1LDIwNiwxNzkuNjg3NSwyMDIsMTgzLjY4NzUiIHN0eWxlPSJzdHJva2U6IzE4MTgxODtzdHJva2Utd2lkdGg6MS4wOyIvPjxsaW5lIHN0eWxlPSJzdHJva2U6IzE4MTgxODtzdHJva2Utd2lkdGg6MS4wOyIgeDE9Ijc2IiB4Mj0iNTciIHkxPSIzNDEuMzc1IiB5Mj0iMzQxLjM3NSIvPjxsaW5lIHN0eWxlPSJzdHJva2U6IzE4MTgxODtzdHJva2Utd2lkdGg6MS4wOyIgeDE9IjU3IiB4Mj0iNTciIHkxPSIzNDEuMzc1IiB5Mj0iMzYzLjM3NSIvPjxwb2x5Z29uIGZpbGw9IiMxODE4MTgiIHBvaW50cz0iNTMsMzUzLjM3NSw1NywzNjMuMzc1LDYxLDM1My4zNzUsNTcsMzU3LjM3NSIgc3R5bGU9InN0cm9rZTojMTgxODE4O3N0cm9rZS13aWR0aDoxLjA7Ii8+PGxpbmUgc3R5bGU9InN0cm9rZTojMTgxODE4O3N0cm9rZS13aWR0aDoxLjA7IiB4MT0iMTUwIiB4Mj0iMTY5IiB5MT0iMzQxLjM3NSIgeTI9IjM0MS4zNzUiLz48bGluZSBzdHlsZT0ic3Ryb2tlOiMxODE4MTg7c3Ryb2tlLXdpZHRoOjEuMDsiIHgxPSIxNjkiIHgyPSIxNjkiIHkxPSIzNDEuMzc1IiB5Mj0iMzYzLjM3NSIvPjxwb2x5Z29uIGZpbGw9IiMxODE4MTgiIHBvaW50cz0iMTY1LDM1My4zNzUsMTY5LDM2My4zNzUsMTczLDM1My4zNzUsMTY5LDM1Ny4zNzUiIHN0eWxlPSJzdHJva2U6IzE4MTgxODtzdHJva2Utd2lkdGg6MS4wOyIvPjxsaW5lIHN0eWxlPSJzdHJva2U6IzE4MTgxODtzdHJva2Utd2lkdGg6MS4wOyIgeDE9IjU3IiB4Mj0iNTciIHkxPSIzOTYuMjE4OCIgeTI9IjQxNC4yMTg4Ii8+PGxpbmUgc3R5bGU9InN0cm9rZTojMTgxODE4O3N0cm9rZS13aWR0aDoxLjA7IiB4MT0iNTciIHgyPSIxMDEiIHkxPSI0MTQuMjE4OCIgeTI9IjQxNC4yMTg4Ii8+PHBvbHlnb24gZmlsbD0iIzE4MTgxOCIgcG9pbnRzPSI5MSw0MTAuMjE4OCwxMDEsNDE0LjIxODgsOTEsNDE4LjIxODgsOTUsNDE0LjIxODgiIHN0eWxlPSJzdHJva2U6IzE4MTgxODtzdHJva2Utd2lkdGg6MS4wOyIvPjxsaW5lIHN0eWxlPSJzdHJva2U6IzE4MTgxODtzdHJva2Utd2lkdGg6MS4wOyIgeDE9IjE2OSIgeDI9IjE2OSIgeTE9IjM5Ni4yMTg4IiB5Mj0iNDE0LjIxODgiLz48bGluZSBzdHlsZT0ic3Ryb2tlOiMxODE4MTg7c3Ryb2tlLXdpZHRoOjEuMDsiIHgxPSIxNjkiIHgyPSIxMjUiIHkxPSI0MTQuMjE4OCIgeTI9IjQxNC4yMTg4Ii8+PHBvbHlnb24gZmlsbD0iIzE4MTgxOCIgcG9pbnRzPSIxMzUsNDEwLjIxODgsMTI1LDQxNC4yMTg4LDEzNSw0MTguMjE4OCwxMzEsNDE0LjIxODgiIHN0eWxlPSJzdHJva2U6IzE4MTgxODtzdHJva2Utd2lkdGg6MS4wOyIvPjxsaW5lIHN0eWxlPSJzdHJva2U6IzE4MTgxODtzdHJva2Utd2lkdGg6MS4wOyIgeDE9IjExMyIgeDI9IjExMyIgeTE9IjMwOS4zNzUiIHkyPSIzMjkuMzc1Ii8+PHBvbHlnb24gZmlsbD0iIzE4MTgxOCIgcG9pbnRzPSIxMDksMzE5LjM3NSwxMTMsMzI5LjM3NSwxMTcsMzE5LjM3NSwxMTMsMzIzLjM3NSIgc3R5bGU9InN0cm9rZTojMTgxODE4O3N0cm9rZS13aWR0aDoxLjA7Ii8+PGxpbmUgc3R5bGU9InN0cm9rZTojMTgxODE4O3N0cm9rZS13aWR0aDoxLjA7IiB4MT0iMTEzIiB4Mj0iMTEzIiB5MT0iNDI2LjIxODgiIHkyPSI0NDYuMjE4OCIvPjxwb2x5Z29uIGZpbGw9IiMxODE4MTgiIHBvaW50cz0iMTA5LDQzNi4yMTg4LDExMyw0NDYuMjE4OCwxMTcsNDM2LjIxODgsMTEzLDQ0MC4yMTg4IiBzdHlsZT0ic3Ryb2tlOiMxODE4MTg7c3Ryb2tlLXdpZHRoOjEuMDsiLz48bGluZSBzdHlsZT0ic3Ryb2tlOiMxODE4MTg7c3Ryb2tlLXdpZHRoOjEuMDsiIHgxPSI3NiIgeDI9IjY2IiB5MT0iNTExLjA2MjUiIHkyPSI1MTEuMDYyNSIvPjxsaW5lIHN0eWxlPSJzdHJva2U6IzE4MTgxODtzdHJva2Utd2lkdGg6MS4wOyIgeDE9IjY2IiB4Mj0iNjYiIHkxPSI1MTEuMDYyNSIgeTI9IjUzMy4wNjI1Ii8+PHBvbHlnb24gZmlsbD0iIzE4MTgxOCIgcG9pbnRzPSI2Miw1MjMuMDYyNSw2Niw1MzMuMDYyNSw3MCw1MjMuMDYyNSw2Niw1MjcuMDYyNSIgc3R5bGU9InN0cm9rZTojMTgxODE4O3N0cm9rZS13aWR0aDoxLjA7Ii8+PGxpbmUgc3R5bGU9InN0cm9rZTojMTgxODE4O3N0cm9rZS13aWR0aDoxLjA7IiB4MT0iMTUwIiB4Mj0iMTYwIiB5MT0iNTExLjA2MjUiIHkyPSI1MTEuMDYyNSIvPjxsaW5lIHN0eWxlPSJzdHJva2U6IzE4MTgxODtzdHJva2Utd2lkdGg6MS4wOyIgeDE9IjE2MCIgeDI9IjE2MCIgeTE9IjUxMS4wNjI1IiB5Mj0iNTMzLjA2MjUiLz48cG9seWdvbiBmaWxsPSIjMTgxODE4IiBwb2ludHM9IjE1Niw1MjMuMDYyNSwxNjAsNTMzLjA2MjUsMTY0LDUyMy4wNjI1LDE2MCw1MjcuMDYyNSIgc3R5bGU9InN0cm9rZTojMTgxODE4O3N0cm9rZS13aWR0aDoxLjA7Ii8+PGxpbmUgc3R5bGU9InN0cm9rZTojMTgxODE4O3N0cm9rZS13aWR0aDoxLjA7IiB4MT0iNjYiIHgyPSI2NiIgeTE9IjU2NS45MDYzIiB5Mj0iNTgzLjkwNjMiLz48bGluZSBzdHlsZT0ic3Ryb2tlOiMxODE4MTg7c3Ryb2tlLXdpZHRoOjEuMDsiIHgxPSI2NiIgeDI9IjEwMSIgeTE9IjU4My45MDYzIiB5Mj0iNTgzLjkwNjMiLz48cG9seWdvbiBmaWxsPSIjMTgxODE4IiBwb2ludHM9IjkxLDU3OS45MDYzLDEwMSw1ODMuOTA2Myw5MSw1ODcuOTA2Myw5NSw1ODMuOTA2MyIgc3R5bGU9InN0cm9rZTojMTgxODE4O3N0cm9rZS13aWR0aDoxLjA7Ii8+PGxpbmUgc3R5bGU9InN0cm9rZTojMTgxODE4O3N0cm9rZS13aWR0aDoxLjA7IiB4MT0iMTYwIiB4Mj0iMTYwIiB5MT0iNTY1LjkwNjMiIHkyPSI1ODMuOTA2MyIvPjxsaW5lIHN0eWxlPSJzdHJva2U6IzE4MTgxODtzdHJva2Utd2lkdGg6MS4wOyIgeDE9IjE2MCIgeDI9IjEyNSIgeTE9IjU4My45MDYzIiB5Mj0iNTgzLjkwNjMiLz48cG9seWdvbiBmaWxsPSIjMTgxODE4IiBwb2ludHM9IjEzNSw1NzkuOTA2MywxMjUsNTgzLjkwNjMsMTM1LDU4Ny45MDYzLDEzMSw1ODMuOTA2MyIgc3R5bGU9InN0cm9rZTojMTgxODE4O3N0cm9rZS13aWR0aDoxLjA7Ii8+PGxpbmUgc3R5bGU9InN0cm9rZTojMTgxODE4O3N0cm9rZS13aWR0aDoxLjA7IiB4MT0iMTEzIiB4Mj0iMTEzIiB5MT0iNDc5LjA2MjUiIHkyPSI0OTkuMDYyNSIvPjxwb2x5Z29uIGZpbGw9IiMxODE4MTgiIHBvaW50cz0iMTA5LDQ4OS4wNjI1LDExMyw0OTkuMDYyNSwxMTcsNDg5LjA2MjUsMTEzLDQ5My4wNjI1IiBzdHlsZT0ic3Ryb2tlOiMxODE4MTg7c3Ryb2tlLXdpZHRoOjEuMDsiLz48bGluZSBzdHlsZT0ic3Ryb2tlOiMxODE4MTg7c3Ryb2tlLXdpZHRoOjEuMDsiIHgxPSIxNjUiIHgyPSIxMTMiIHkxPSIyNTQuNTMxMyIgeTI9IjI1NC41MzEzIi8+PGxpbmUgc3R5bGU9InN0cm9rZTojMTgxODE4O3N0cm9rZS13aWR0aDoxLjA7IiB4MT0iMTEzIiB4Mj0iMTEzIiB5MT0iMjU0LjUzMTMiIHkyPSIyNzYuNTMxMyIvPjxwb2x5Z29uIGZpbGw9IiMxODE4MTgiIHBvaW50cz0iMTA5LDI2Ni41MzEzLDExMywyNzYuNTMxMywxMTcsMjY2LjUzMTMsMTEzLDI3MC41MzEzIiBzdHlsZT0ic3Ryb2tlOiMxODE4MTg7c3Ryb2tlLXdpZHRoOjEuMDsiLz48bGluZSBzdHlsZT0ic3Ryb2tlOiMxODE4MTg7c3Ryb2tlLXdpZHRoOjEuMDsiIHgxPSIyMzkiIHgyPSIyOTEiIHkxPSIyNTQuNTMxMyIgeTI9IjI1NC41MzEzIi8+PGxpbmUgc3R5bGU9InN0cm9rZTojMTgxODE4O3N0cm9rZS13aWR0aDoxLjA7IiB4MT0iMjkxIiB4Mj0iMjkxIiB5MT0iMjU0LjUzMTMiIHkyPSIyNzYuNTMxMyIvPjxwb2x5Z29uIGZpbGw9IiMxODE4MTgiIHBvaW50cz0iMjg3LDI2Ni41MzEzLDI5MSwyNzYuNTMxMywyOTUsMjY2LjUzMTMsMjkxLDI3MC41MzEzIiBzdHlsZT0ic3Ryb2tlOiMxODE4MTg7c3Ryb2tlLXdpZHRoOjEuMDsiLz48bGluZSBzdHlsZT0ic3Ryb2tlOiMxODE4MTg7c3Ryb2tlLXdpZHRoOjEuMDsiIHgxPSIxMTMiIHgyPSIxMTMiIHkxPSI1OTUuOTA2MyIgeTI9IjYxMy45MDYzIi8+PGxpbmUgc3R5bGU9InN0cm9rZTojMTgxODE4O3N0cm9rZS13aWR0aDoxLjA7IiB4MT0iMTEzIiB4Mj0iMTkwIiB5MT0iNjEzLjkwNjMiIHkyPSI2MTMuOTA2MyIvPjxwb2x5Z29uIGZpbGw9IiMxODE4MTgiIHBvaW50cz0iMTgwLDYwOS45MDYzLDE5MCw2MTMuOTA2MywxODAsNjE3LjkwNjMsMTg0LDYxMy45MDYzIiBzdHlsZT0ic3Ryb2tlOiMxODE4MTg7c3Ryb2tlLXdpZHRoOjEuMDsiLz48bGluZSBzdHlsZT0ic3Ryb2tlOiMxODE4MTg7c3Ryb2tlLXdpZHRoOjEuMDsiIHgxPSIyOTEiIHgyPSIyOTEiIHkxPSIzMDkuMzc1IiB5Mj0iNjEzLjkwNjMiLz48bGluZSBzdHlsZT0ic3Ryb2tlOiMxODE4MTg7c3Ryb2tlLXdpZHRoOjEuMDsiIHgxPSIyOTEiIHgyPSIyMTQiIHkxPSI2MTMuOTA2MyIgeTI9IjYxMy45MDYzIi8+PHBvbHlnb24gZmlsbD0iIzE4MTgxOCIgcG9pbnRzPSIyMjQsNjA5LjkwNjMsMjE0LDYxMy45MDYzLDIyNCw2MTcuOTA2MywyMjAsNjEzLjkwNjMiIHN0eWxlPSJzdHJva2U6IzE4MTgxODtzdHJva2Utd2lkdGg6MS4wOyIvPjxsaW5lIHN0eWxlPSJzdHJva2U6IzE4MTgxODtzdHJva2Utd2lkdGg6MS4wOyIgeDE9IjIwMiIgeDI9IjIwMiIgeTE9IjIyMi41MzEzIiB5Mj0iMjQyLjUzMTMiLz48cG9seWdvbiBmaWxsPSIjMTgxODE4IiBwb2ludHM9IjE5OCwyMzIuNTMxMywyMDIsMjQyLjUzMTMsMjA2LDIzMi41MzEzLDIwMiwyMzYuNTMxMyIgc3R5bGU9InN0cm9rZTojMTgxODE4O3N0cm9rZS13aWR0aDoxLjA7Ii8+PGxpbmUgc3R5bGU9InN0cm9rZTojMTgxODE4O3N0cm9rZS13aWR0aDoxLjA7IiB4MT0iMjAyIiB4Mj0iMjAyIiB5MT0iNjI1LjkwNjMiIHkyPSI2NDUuOTA2MyIvPjxwb2x5Z29uIGZpbGw9IiMxODE4MTgiIHBvaW50cz0iMTk4LDYzNS45MDYzLDIwMiw2NDUuOTA2MywyMDYsNjM1LjkwNjMsMjAyLDYzOS45MDYzIiBzdHlsZT0ic3Ryb2tlOiMxODE4MTg7c3Ryb2tlLXdpZHRoOjEuMDsiLz48bGluZSBzdHlsZT0ic3Ryb2tlOiMxODE4MTg7c3Ryb2tlLXdpZHRoOjEuMDsiIHgxPSIyNzAuNSIgeDI9IjIwMiIgeTE9IjExNC44NDM4IiB5Mj0iMTE0Ljg0MzgiLz48bGluZSBzdHlsZT0ic3Ryb2tlOiMxODE4MTg7c3Ryb2tlLXdpZHRoOjEuMDsiIHgxPSIyMDIiIHgyPSIyMDIiIHkxPSIxMTQuODQzOCIgeTI9IjEzNi44NDM4Ii8+PHBvbHlnb24gZmlsbD0iIzE4MTgxOCIgcG9pbnRzPSIxOTgsMTI2Ljg0MzgsMjAyLDEzNi44NDM4LDIwNiwxMjYuODQzOCwyMDIsMTMwLjg0MzgiIHN0eWxlPSJzdHJva2U6IzE4MTgxODtzdHJva2Utd2lkdGg6MS4wOyIvPjxsaW5lIHN0eWxlPSJzdHJva2U6IzE4MTgxODtzdHJva2Utd2lkdGg6MS4wOyIgeDE9IjM0NC41IiB4Mj0iNDEzIiB5MT0iMTE0Ljg0MzgiIHkyPSIxMTQuODQzOCIvPjxsaW5lIHN0eWxlPSJzdHJva2U6IzE4MTgxODtzdHJva2Utd2lkdGg6MS4wOyIgeDE9IjQxMyIgeDI9IjQxMyIgeTE9IjExNC44NDM4IiB5Mj0iMTM2Ljg0MzgiLz48cG9seWdvbiBmaWxsPSIjMTgxODE4IiBwb2ludHM9IjQwOSwxMjYuODQzOCw0MTMsMTM2Ljg0MzgsNDE3LDEyNi44NDM4LDQxMywxMzAuODQzOCIgc3R5bGU9InN0cm9rZTojMTgxODE4O3N0cm9rZS13aWR0aDoxLjA7Ii8+PGxpbmUgc3R5bGU9InN0cm9rZTojMTgxODE4O3N0cm9rZS13aWR0aDoxLjA7IiB4MT0iMjAyIiB4Mj0iMjAyIiB5MT0iNjc4Ljc1IiB5Mj0iNjk2Ljc1Ii8+PGxpbmUgc3R5bGU9InN0cm9rZTojMTgxODE4O3N0cm9rZS13aWR0aDoxLjA7IiB4MT0iMjAyIiB4Mj0iMjk1LjUiIHkxPSI2OTYuNzUiIHkyPSI2OTYuNzUiLz48cG9seWdvbiBmaWxsPSIjMTgxODE4IiBwb2ludHM9IjI4NS41LDY5Mi43NSwyOTUuNSw2OTYuNzUsMjg1LjUsNzAwLjc1LDI4OS41LDY5Ni43NSIgc3R5bGU9InN0cm9rZTojMTgxODE4O3N0cm9rZS13aWR0aDoxLjA7Ii8+PGxpbmUgc3R5bGU9InN0cm9rZTojMTgxODE4O3N0cm9rZS13aWR0aDoxLjA7IiB4MT0iNDEzIiB4Mj0iNDEzIiB5MT0iMTY5LjY4NzUiIHkyPSI2OTYuNzUiLz48bGluZSBzdHlsZT0ic3Ryb2tlOiMxODE4MTg7c3Ryb2tlLXdpZHRoOjEuMDsiIHgxPSI0MTMiIHgyPSIzMTkuNSIgeTE9IjY5Ni43NSIgeTI9IjY5Ni43NSIvPjxwb2x5Z29uIGZpbGw9IiMxODE4MTgiIHBvaW50cz0iMzI5LjUsNjkyLjc1LDMxOS41LDY5Ni43NSwzMjkuNSw3MDAuNzUsMzI1LjUsNjk2Ljc1IiBzdHlsZT0ic3Ryb2tlOiMxODE4MTg7c3Ryb2tlLXdpZHRoOjEuMDsiLz48bGluZSBzdHlsZT0ic3Ryb2tlOiMxODE4MTg7c3Ryb2tlLXdpZHRoOjEuMDsiIHgxPSIzMDcuNSIgeDI9IjMwNy41IiB5MT0iODIuODQzOCIgeTI9IjEwMi44NDM4Ii8+PHBvbHlnb24gZmlsbD0iIzE4MTgxOCIgcG9pbnRzPSIzMDMuNSw5Mi44NDM4LDMwNy41LDEwMi44NDM4LDMxMS41LDkyLjg0MzgsMzA3LjUsOTYuODQzOCIgc3R5bGU9InN0cm9rZTojMTgxODE4O3N0cm9rZS13aWR0aDoxLjA7Ii8+PGxpbmUgc3R5bGU9InN0cm9rZTojMTgxODE4O3N0cm9rZS13aWR0aDoxLjA7IiB4MT0iMzA3LjUiIHgyPSIzMDcuNSIgeTE9IjcwOC43NSIgeTI9IjcyOC43NSIvPjxwb2x5Z29uIGZpbGw9IiMxODE4MTgiIHBvaW50cz0iMzAzLjUsNzE4Ljc1LDMwNy41LDcyOC43NSwzMTEuNSw3MTguNzUsMzA3LjUsNzIyLjc1IiBzdHlsZT0ic3Ryb2tlOiMxODE4MTg7c3Ryb2tlLXdpZHRoOjEuMDsiLz48bGluZSBzdHlsZT0ic3Ryb2tlOiMxODE4MTg7c3Ryb2tlLXdpZHRoOjEuMDsiIHgxPSIyNTEuNSIgeDI9IjI1MS41IiB5MT0iODQ4LjQzNzUiIHkyPSI4NjguNDM3NSIvPjxwb2x5Z29uIGZpbGw9IiMxODE4MTgiIHBvaW50cz0iMjQ3LjUsODU4LjQzNzUsMjUxLjUsODY4LjQzNzUsMjU1LjUsODU4LjQzNzUsMjUxLjUsODYyLjQzNzUiIHN0eWxlPSJzdHJva2U6IzE4MTgxODtzdHJva2Utd2lkdGg6MS4wOyIvPjxsaW5lIHN0eWxlPSJzdHJva2U6IzE4MTgxODtzdHJva2Utd2lkdGg6MS4wOyIgeDE9IjI1MS41IiB4Mj0iMjUxLjUiIHkxPSI5MDEuMjgxMyIgeTI9IjkyMS4yODEzIi8+PHBvbHlnb24gZmlsbD0iIzE4MTgxOCIgcG9pbnRzPSIyNDcuNSw5MTEuMjgxMywyNTEuNSw5MjEuMjgxMywyNTUuNSw5MTEuMjgxMywyNTEuNSw5MTUuMjgxMyIgc3R5bGU9InN0cm9rZTojMTgxODE4O3N0cm9rZS13aWR0aDoxLjA7Ii8+PGxpbmUgc3R5bGU9InN0cm9rZTojMTgxODE4O3N0cm9rZS13aWR0aDoxLjA7IiB4MT0iMjcwLjUiIHgyPSIyNTEuNSIgeTE9Ijc5My41OTM4IiB5Mj0iNzkzLjU5MzgiLz48bGluZSBzdHlsZT0ic3Ryb2tlOiMxODE4MTg7c3Ryb2tlLXdpZHRoOjEuMDsiIHgxPSIyNTEuNSIgeDI9IjI1MS41IiB5MT0iNzkzLjU5MzgiIHkyPSI4MTUuNTkzOCIvPjxwb2x5Z29uIGZpbGw9IiMxODE4MTgiIHBvaW50cz0iMjQ3LjUsODA1LjU5MzgsMjUxLjUsODE1LjU5MzgsMjU1LjUsODA1LjU5MzgsMjUxLjUsODA5LjU5MzgiIHN0eWxlPSJzdHJva2U6IzE4MTgxODtzdHJva2Utd2lkdGg6MS4wOyIvPjxsaW5lIHN0eWxlPSJzdHJva2U6IzE4MTgxODtzdHJva2Utd2lkdGg6MS4wOyIgeDE9IjM0NC41IiB4Mj0iMzYzLjUiIHkxPSI3OTMuNTkzOCIgeTI9Ijc5My41OTM4Ii8+PGxpbmUgc3R5bGU9InN0cm9rZTojMTgxODE4O3N0cm9rZS13aWR0aDoxLjA7IiB4MT0iMzYzLjUiIHgyPSIzNjMuNSIgeTE9Ijc5My41OTM4IiB5Mj0iODE1LjU5MzgiLz48cG9seWdvbiBmaWxsPSIjMTgxODE4IiBwb2ludHM9IjM1OS41LDgwNS41OTM4LDM2My41LDgxNS41OTM4LDM2Ny41LDgwNS41OTM4LDM2My41LDgwOS41OTM4IiBzdHlsZT0ic3Ryb2tlOiMxODE4MTg7c3Ryb2tlLXdpZHRoOjEuMDsiLz48bGluZSBzdHlsZT0ic3Ryb2tlOiMxODE4MTg7c3Ryb2tlLXdpZHRoOjEuMDsiIHgxPSIyNTEuNSIgeDI9IjI1MS41IiB5MT0iOTU0LjEyNSIgeTI9Ijk3Mi4xMjUiLz48bGluZSBzdHlsZT0ic3Ryb2tlOiMxODE4MTg7c3Ryb2tlLXdpZHRoOjEuMDsiIHgxPSIyNTEuNSIgeDI9IjI5NS41IiB5MT0iOTcyLjEyNSIgeTI9Ijk3Mi4xMjUiLz48cG9seWdvbiBmaWxsPSIjMTgxODE4IiBwb2ludHM9IjI4NS41LDk2OC4xMjUsMjk1LjUsOTcyLjEyNSwyODUuNSw5NzYuMTI1LDI4OS41LDk3Mi4xMjUiIHN0eWxlPSJzdHJva2U6IzE4MTgxODtzdHJva2Utd2lkdGg6MS4wOyIvPjxsaW5lIHN0eWxlPSJzdHJva2U6IzE4MTgxODtzdHJva2Utd2lkdGg6MS4wOyIgeDE9IjM2My41IiB4Mj0iMzYzLjUiIHkxPSI4NDguNDM3NSIgeTI9Ijk3Mi4xMjUiLz48bGluZSBzdHlsZT0ic3Ryb2tlOiMxODE4MTg7c3Ryb2tlLXdpZHRoOjEuMDsiIHgxPSIzNjMuNSIgeDI9IjMxOS41IiB5MT0iOTcyLjEyNSIgeTI9Ijk3Mi4xMjUiLz48cG9seWdvbiBmaWxsPSIjMTgxODE4IiBwb2ludHM9IjMyOS41LDk2OC4xMjUsMzE5LjUsOTcyLjEyNSwzMjkuNSw5NzYuMTI1LDMyNS41LDk3Mi4xMjUiIHN0eWxlPSJzdHJva2U6IzE4MTgxODtzdHJva2Utd2lkdGg6MS4wOyIvPjxsaW5lIHN0eWxlPSJzdHJva2U6IzE4MTgxODtzdHJva2Utd2lkdGg6MS4wOyIgeDE9IjMwNy41IiB4Mj0iMzA3LjUiIHkxPSI3NjEuNTkzOCIgeTI9Ijc4MS41OTM4Ii8+PHBvbHlnb24gZmlsbD0iIzE4MTgxOCIgcG9pbnRzPSIzMDMuNSw3NzEuNTkzOCwzMDcuNSw3ODEuNTkzOCwzMTEuNSw3NzEuNTkzOCwzMDcuNSw3NzUuNTkzOCIgc3R5bGU9InN0cm9rZTojMTgxODE4O3N0cm9rZS13aWR0aDoxLjA7Ii8+PGxpbmUgc3R5bGU9InN0cm9rZTojMTgxODE4O3N0cm9rZS13aWR0aDoxLjA7IiB4MT0iMzA3LjUiIHgyPSIzMDcuNSIgeTE9Ijk4NC4xMjUiIHkyPSIxMDA0LjEyNSIvPjxwb2x5Z29uIGZpbGw9IiMxODE4MTgiIHBvaW50cz0iMzAzLjUsOTk0LjEyNSwzMDcuNSwxMDA0LjEyNSwzMTEuNSw5OTQuMTI1LDMwNy41LDk5OC4xMjUiIHN0eWxlPSJzdHJva2U6IzE4MTgxODtzdHJva2Utd2lkdGg6MS4wOyIvPjwhLS1TUkM9W2JQQlRKaTkwNDhObHpvZHNKZFk1U2s2cGMwWUhuQTJuVkcyWkdDZ0ZlSU9iNWFISFd4R2FqWDIxUTZjMGJ6ZFB0Unc1WW1GWDl2M2VwTVBwU2h4UENwRHhIMjVlaWgwNFhNNWkxdG1LR1RhWmtkNW9QSDJZR1NTNWxvbGlqaDB6UmR3OUhXSkpVZWZhQ3BJMVRzdlFLNnVWOXdibmJpeEgxN1Z3SUtBZm5pU3J3UGhHeWlIYUJsaXB1TExJMnBjLUJsNUFSb3Fpd2cyc2x1djJ2Q1hkdU0yRDg4Smc4S1hYTzFSWm1YcllfRWFzUmJXOGZ5X3JENHMwckxxeEV0Ylg1TGRheTh6UF8xMzRSeXhJY0psRFBaMjM2VzRCTnRPcGUwZjFMU05PY3U3TkIzUmZpNmNCVkpTRmxJdVlMcUctYmpmLVR5VWhvUmFEWnkteDhyc3ZEVHYtNXdxQUJhaTU0YjRsSFJQQUIxbDVqUXFRSFBtaUV1SG0yQk0xMjV3TDMtd1RGc3p4Q25KSWx6bDZBX3VTRVVnZ1NxRmN6T1F5LVBKWkY5ek9fcVlnNm5VTkZtMDBdLS0+PC9nPjwvc3ZnPg==;" vertex="1" parent="1">
            <mxGeometry x="-1860" y="1740" width="470" height="1037" as="geometry" />
          </mxCell>
        </UserObject>
        <UserObject label="" plantUmlData="{&quot;data&quot;:&quot;@startuml OnlineLearningPlatform_DataFlow\n\n&#39; 设置样式\nskinparam shadowing false\nskinparam roundcorners 10\n\n&#39; 外部实体\nactor User as \&quot;大学生用户\&quot;\nactor Admin as \&quot;学习平台管理员\&quot;\n\n&#39; 数据流程\nUser --&gt; 大学生用户 : 学生信息请求\nUser --&gt; 大学生用户 : 登录\n大学生用户 --&gt; 在线学习平台系统 : 学生信息请求\n大学生用户 --&gt; 在线学习平台系统 : 登录\n大学生用户 --&gt; 在线学习平台系统 : 浏览课程\n在线学习平台系统 --&gt; 大学生用户 : 返回课程列表\n大学生用户 --&gt; 在线学习平台系统 : 购买课程\n在线学习平台系统 --&gt; 大学生用户 : 处理购买\n大学生用户 --&gt; 在线学习平台系统 : 提交作业\n在线学习平台系统 --&gt; 大学生用户 : 保存作业\n大学生用户 --&gt; 在线学习平台系统 : 查看成绩\n在线学习平台系统 --&gt; 大学生用户 : 返回成绩\nAdmin --&gt; 在线学习平台系统 : 系统维护\n在线学习平台系统 --&gt; Admin : 处理维护请求\n\n&#39; 数据存储\nUser --&gt; database as \&quot;学生数据\&quot; : 学生信息请求\nUser --&gt; database as \&quot;学生数据\&quot; : 登录\n大学生用户 --&gt; database as \&quot;学生数据\&quot; : 学生信息请求\n大学生用户 --&gt; database as \&quot;学生数据\&quot; : 登录\n大学生用户 --&gt; database as \&quot;课程数据\&quot; : 浏览课程\n在线学习平台系统 --&gt; database as \&quot;课程数据\&quot; : 返回课程列表\n大学生用户 --&gt; database as \&quot;课程数据\&quot; : 购买课程\n在线学习平台系统 --&gt; database as \&quot;课程数据\&quot; : 处理购买\n大学生用户 --&gt; database as \&quot;学生数据\&quot; : 提交作业\n在线学习平台系统 --&gt; database as \&quot;学生数据\&quot; : 保存作业\n大学生用户 --&gt; database as \&quot;学生成绩\&quot; : 查看成绩\n在线学习平台系统 --&gt; database as \&quot;学生成绩\&quot; : 返回成绩\n\n@enduml\n&quot;,&quot;format&quot;:&quot;svg&quot;}" id="3bJKWBTT_QmVk4gQoxYi-4">
          <mxCell style="shape=image;noLabel=1;verticalAlign=top;aspect=fixed;imageAspect=0;image=data:image/svg+xml,PD94bWwgdmVyc2lvbj0iMS4wIiBlbmNvZGluZz0idXMtYXNjaWkiIHN0YW5kYWxvbmU9Im5vIj8+PHN2ZyB4bWxucz0iaHR0cDovL3d3dy53My5vcmcvMjAwMC9zdmciIHhtbG5zOnhsaW5rPSJodHRwOi8vd3d3LnczLm9yZy8xOTk5L3hsaW5rIiBjb250ZW50U3R5bGVUeXBlPSJ0ZXh0L2NzcyIgaGVpZ2h0PSI5MDVweCIgcHJlc2VydmVBc3BlY3RSYXRpbz0ibm9uZSIgc3R5bGU9IndpZHRoOjUxMXB4O2hlaWdodDo5MDVweDtiYWNrZ3JvdW5kOiNGRkZGRkY7IiB2ZXJzaW9uPSIxLjEiIHZpZXdCb3g9IjAgMCA1MTEgOTA1IiB3aWR0aD0iNTExcHgiIHpvb21BbmRQYW49Im1hZ25pZnkiPjxkZWZzLz48Zz48bGluZSBzdHlsZT0ic3Ryb2tlOiMxODE4MTg7c3Ryb2tlLXdpZHRoOjAuNTtzdHJva2UtZGFzaGFycmF5OjUuMCw1LjA7IiB4MT0iNDMiIHgyPSI0MyIgeTE9Ijc5Ljk4NDQiIHkyPSI4MjUuNzUiLz48bGluZSBzdHlsZT0ic3Ryb2tlOiMxODE4MTg7c3Ryb2tlLXdpZHRoOjAuNTtzdHJva2UtZGFzaGFycmF5OjUuMCw1LjA7IiB4MT0iMTQzIiB4Mj0iMTQzIiB5MT0iNzkuOTg0NCIgeTI9IjgyNS43NSIvPjxsaW5lIHN0eWxlPSJzdHJva2U6IzE4MTgxODtzdHJva2Utd2lkdGg6MC41O3N0cm9rZS1kYXNoYXJyYXk6NS4wLDUuMDsiIHgxPSIyNDciIHgyPSIyNDciIHkxPSI3OS45ODQ0IiB5Mj0iODI1Ljc1Ii8+PGxpbmUgc3R5bGU9InN0cm9rZTojMTgxODE4O3N0cm9rZS13aWR0aDowLjU7c3Ryb2tlLWRhc2hhcnJheTo1LjAsNS4wOyIgeDE9IjM2MiIgeDI9IjM2MiIgeTE9Ijc5Ljk4NDQiIHkyPSI4MjUuNzUiLz48bGluZSBzdHlsZT0ic3Ryb2tlOiMxODE4MTg7c3Ryb2tlLXdpZHRoOjAuNTtzdHJva2UtZGFzaGFycmF5OjUuMCw1LjA7IiB4MT0iNDcwIiB4Mj0iNDcwIiB5MT0iNzkuOTg0NCIgeTI9IjgyNS43NSIvPjx0ZXh0IGZpbGw9IiMwMDAwMDAiIGZvbnQtZmFtaWx5PSJzYW5zLXNlcmlmIiBmb250LXNpemU9IjE0IiBsZW5ndGhBZGp1c3Q9InNwYWNpbmciIHRleHRMZW5ndGg9IjcwIiB4PSI1IiB5PSI3OC4yMzQ0Ij4mIzIyODIzOyYjMjMzOTg7JiMyOTk4MzsmIzI5OTkyOyYjMjUxNDM7PC90ZXh0PjxlbGxpcHNlIGN4PSI0MyIgY3k9IjEzLjUiIGZpbGw9IiNFMkUyRjAiIHJ4PSI4IiByeT0iOCIgc3R5bGU9InN0cm9rZTojMTgxODE4O3N0cm9rZS13aWR0aDowLjU7Ii8+PHBhdGggZD0iTTQzLDIxLjUgTDQzLDQ4LjUgTTMwLDI5LjUgTDU2LDI5LjUgTTQzLDQ4LjUgTDMwLDYzLjUgTTQzLDQ4LjUgTDU2LDYzLjUgIiBmaWxsPSJub25lIiBzdHlsZT0ic3Ryb2tlOiMxODE4MTg7c3Ryb2tlLXdpZHRoOjAuNTsiLz48dGV4dCBmaWxsPSIjMDAwMDAwIiBmb250LWZhbWlseT0ic2Fucy1zZXJpZiIgZm9udC1zaXplPSIxNCIgbGVuZ3RoQWRqdXN0PSJzcGFjaW5nIiB0ZXh0TGVuZ3RoPSI3MCIgeD0iNSIgeT0iODM3Ljk4NDQiPiYjMjI4MjM7JiMyMzM5ODsmIzI5OTgzOyYjMjk5OTI7JiMyNTE0Mzs8L3RleHQ+PGVsbGlwc2UgY3g9IjQzIiBjeT0iODQ4LjIzNDQiIGZpbGw9IiNFMkUyRjAiIHJ4PSI4IiByeT0iOCIgc3R5bGU9InN0cm9rZTojMTgxODE4O3N0cm9rZS13aWR0aDowLjU7Ii8+PHBhdGggZD0iTTQzLDg1Ni4yMzQ0IEw0Myw4ODMuMjM0NCBNMzAsODY0LjIzNDQgTDU2LDg2NC4yMzQ0IE00Myw4ODMuMjM0NCBMMzAsODk4LjIzNDQgTTQzLDg4My4yMzQ0IEw1Niw4OTguMjM0NCAiIGZpbGw9Im5vbmUiIHN0eWxlPSJzdHJva2U6IzE4MTgxODtzdHJva2Utd2lkdGg6MC41OyIvPjx0ZXh0IGZpbGw9IiMwMDAwMDAiIGZvbnQtZmFtaWx5PSJzYW5zLXNlcmlmIiBmb250LXNpemU9IjE0IiBsZW5ndGhBZGp1c3Q9InNwYWNpbmciIHRleHRMZW5ndGg9Ijk4IiB4PSI5MSIgeT0iNzguMjM0NCI+JiMyMzM5ODsmIzIwMDY0OyYjMjQxNzk7JiMyMTQ4ODsmIzMxNjQ5OyYjMjk3MDI7JiMyMTU5Mjs8L3RleHQ+PGVsbGlwc2UgY3g9IjE0MyIgY3k9IjEzLjUiIGZpbGw9IiNFMkUyRjAiIHJ4PSI4IiByeT0iOCIgc3R5bGU9InN0cm9rZTojMTgxODE4O3N0cm9rZS13aWR0aDowLjU7Ii8+PHBhdGggZD0iTTE0MywyMS41IEwxNDMsNDguNSBNMTMwLDI5LjUgTDE1NiwyOS41IE0xNDMsNDguNSBMMTMwLDYzLjUgTTE0Myw0OC41IEwxNTYsNjMuNSAiIGZpbGw9Im5vbmUiIHN0eWxlPSJzdHJva2U6IzE4MTgxODtzdHJva2Utd2lkdGg6MC41OyIvPjx0ZXh0IGZpbGw9IiMwMDAwMDAiIGZvbnQtZmFtaWx5PSJzYW5zLXNlcmlmIiBmb250LXNpemU9IjE0IiBsZW5ndGhBZGp1c3Q9InNwYWNpbmciIHRleHRMZW5ndGg9Ijk4IiB4PSI5MSIgeT0iODM3Ljk4NDQiPiYjMjMzOTg7JiMyMDA2NDsmIzI0MTc5OyYjMjE0ODg7JiMzMTY0OTsmIzI5NzAyOyYjMjE1OTI7PC90ZXh0PjxlbGxpcHNlIGN4PSIxNDMiIGN5PSI4NDguMjM0NCIgZmlsbD0iI0UyRTJGMCIgcng9IjgiIHJ5PSI4IiBzdHlsZT0ic3Ryb2tlOiMxODE4MTg7c3Ryb2tlLXdpZHRoOjAuNTsiLz48cGF0aCBkPSJNMTQzLDg1Ni4yMzQ0IEwxNDMsODgzLjIzNDQgTTEzMCw4NjQuMjM0NCBMMTU2LDg2NC4yMzQ0IE0xNDMsODgzLjIzNDQgTDEzMCw4OTguMjM0NCBNMTQzLDg4My4yMzQ0IEwxNTYsODk4LjIzNDQgIiBmaWxsPSJub25lIiBzdHlsZT0ic3Ryb2tlOiMxODE4MTg7c3Ryb2tlLXdpZHRoOjAuNTsiLz48cmVjdCBmaWxsPSIjRTJFMkYwIiBoZWlnaHQ9IjI4Ljk4NDQiIHJ4PSIyLjUiIHJ5PSIyLjUiIHN0eWxlPSJzdHJva2U6IzE4MTgxODtzdHJva2Utd2lkdGg6MC41OyIgd2lkdGg9Ijg0IiB4PSIyMDUiIHk9IjUwIi8+PHRleHQgZmlsbD0iIzAwMDAwMCIgZm9udC1mYW1pbHk9InNhbnMtc2VyaWYiIGZvbnQtc2l6ZT0iMTQiIGxlbmd0aEFkanVzdD0ic3BhY2luZyIgdGV4dExlbmd0aD0iNzAiIHg9IjIxMiIgeT0iNzAuMjM0NCI+JiMyMjgyMzsmIzIzMzk4OyYjMjk5ODM7JiMyOTk5MjsmIzI1MTQzOzwvdGV4dD48cmVjdCBmaWxsPSIjRTJFMkYwIiBoZWlnaHQ9IjI4Ljk4NDQiIHJ4PSIyLjUiIHJ5PSIyLjUiIHN0eWxlPSJzdHJva2U6IzE4MTgxODtzdHJva2Utd2lkdGg6MC41OyIgd2lkdGg9Ijg0IiB4PSIyMDUiIHk9IjgyNC43NSIvPjx0ZXh0IGZpbGw9IiMwMDAwMDAiIGZvbnQtZmFtaWx5PSJzYW5zLXNlcmlmIiBmb250LXNpemU9IjE0IiBsZW5ndGhBZGp1c3Q9InNwYWNpbmciIHRleHRMZW5ndGg9IjcwIiB4PSIyMTIiIHk9Ijg0NC45ODQ0Ij4mIzIyODIzOyYjMjMzOTg7JiMyOTk4MzsmIzI5OTkyOyYjMjUxNDM7PC90ZXh0PjxyZWN0IGZpbGw9IiNFMkUyRjAiIGhlaWdodD0iMjguOTg0NCIgcng9IjIuNSIgcnk9IjIuNSIgc3R5bGU9InN0cm9rZTojMTgxODE4O3N0cm9rZS13aWR0aDowLjU7IiB3aWR0aD0iMTI2IiB4PSIyOTkiIHk9IjUwIi8+PHRleHQgZmlsbD0iIzAwMDAwMCIgZm9udC1mYW1pbHk9InNhbnMtc2VyaWYiIGZvbnQtc2l6ZT0iMTQiIGxlbmd0aEFkanVzdD0ic3BhY2luZyIgdGV4dExlbmd0aD0iMTEyIiB4PSIzMDYiIHk9IjcwLjIzNDQiPiYjMjIzMTI7JiMzMjQ0NzsmIzIzMzk4OyYjMjAwNjQ7JiMyNDE3OTsmIzIxNDg4OyYjMzE5OTU7JiMzMjQ3OTs8L3RleHQ+PHJlY3QgZmlsbD0iI0UyRTJGMCIgaGVpZ2h0PSIyOC45ODQ0IiByeD0iMi41IiByeT0iMi41IiBzdHlsZT0ic3Ryb2tlOiMxODE4MTg7c3Ryb2tlLXdpZHRoOjAuNTsiIHdpZHRoPSIxMjYiIHg9IjI5OSIgeT0iODI0Ljc1Ii8+PHRleHQgZmlsbD0iIzAwMDAwMCIgZm9udC1mYW1pbHk9InNhbnMtc2VyaWYiIGZvbnQtc2l6ZT0iMTQiIGxlbmd0aEFkanVzdD0ic3BhY2luZyIgdGV4dExlbmd0aD0iMTEyIiB4PSIzMDYiIHk9Ijg0NC45ODQ0Ij4mIzIyMzEyOyYjMzI0NDc7JiMyMzM5ODsmIzIwMDY0OyYjMjQxNzk7JiMyMTQ4ODsmIzMxOTk1OyYjMzI0Nzk7PC90ZXh0PjxyZWN0IGZpbGw9IiNFMkUyRjAiIGhlaWdodD0iMjguOTg0NCIgcng9IjIuNSIgcnk9IjIuNSIgc3R5bGU9InN0cm9rZTojMTgxODE4O3N0cm9rZS13aWR0aDowLjU7IiB3aWR0aD0iNzAiIHg9IjQzNSIgeT0iNTAiLz48dGV4dCBmaWxsPSIjMDAwMDAwIiBmb250LWZhbWlseT0ic2Fucy1zZXJpZiIgZm9udC1zaXplPSIxNCIgbGVuZ3RoQWRqdXN0PSJzcGFjaW5nIiB0ZXh0TGVuZ3RoPSI1NiIgeD0iNDQyIiB5PSI3MC4yMzQ0Ij4mIzIzMzk4OyYjMjk5ODM7JiMyNTk2ODsmIzI1NDU0OzwvdGV4dD48cmVjdCBmaWxsPSIjRTJFMkYwIiBoZWlnaHQ9IjI4Ljk4NDQiIHJ4PSIyLjUiIHJ5PSIyLjUiIHN0eWxlPSJzdHJva2U6IzE4MTgxODtzdHJva2Utd2lkdGg6MC41OyIgd2lkdGg9IjcwIiB4PSI0MzUiIHk9IjgyNC43NSIvPjx0ZXh0IGZpbGw9IiMwMDAwMDAiIGZvbnQtZmFtaWx5PSJzYW5zLXNlcmlmIiBmb250LXNpemU9IjE0IiBsZW5ndGhBZGp1c3Q9InNwYWNpbmciIHRleHRMZW5ndGg9IjU2IiB4PSI0NDIiIHk9Ijg0NC45ODQ0Ij4mIzIzMzk4OyYjMjk5ODM7JiMyNTk2ODsmIzI1NDU0OzwvdGV4dD48cG9seWdvbiBmaWxsPSIjMTgxODE4IiBwb2ludHM9IjIzNSwxMDUuODk4NCwyNDUsMTA5Ljg5ODQsMjM1LDExMy44OTg0LDIzOSwxMDkuODk4NCIgc3R5bGU9InN0cm9rZTojMTgxODE4O3N0cm9rZS13aWR0aDoxLjA7Ii8+PGxpbmUgc3R5bGU9InN0cm9rZTojMTgxODE4O3N0cm9rZS13aWR0aDoxLjA7c3Ryb2tlLWRhc2hhcnJheToyLjAsMi4wOyIgeDE9IjQzIiB4Mj0iMjQxIiB5MT0iMTA5Ljg5ODQiIHkyPSIxMDkuODk4NCIvPjx0ZXh0IGZpbGw9IiMwMDAwMDAiIGZvbnQtZmFtaWx5PSJzYW5zLXNlcmlmIiBmb250LXNpemU9IjEzIiBsZW5ndGhBZGp1c3Q9InNwYWNpbmciIHRleHRMZW5ndGg9Ijc4IiB4PSI1MCIgeT0iMTA2LjI3MzQiPiYjMjMzOTg7JiMyOTk4MzsmIzIwNDQ5OyYjMjQ2ODc7JiMzNTgzMTsmIzI3NzE0OzwvdGV4dD48cG9seWdvbiBmaWxsPSIjMTgxODE4IiBwb2ludHM9IjIzNSwxMzMuODEyNSwyNDUsMTM3LjgxMjUsMjM1LDE0MS44MTI1LDIzOSwxMzcuODEyNSIgc3R5bGU9InN0cm9rZTojMTgxODE4O3N0cm9rZS13aWR0aDoxLjA7Ii8+PGxpbmUgc3R5bGU9InN0cm9rZTojMTgxODE4O3N0cm9rZS13aWR0aDoxLjA7c3Ryb2tlLWRhc2hhcnJheToyLjAsMi4wOyIgeDE9IjQzIiB4Mj0iMjQxIiB5MT0iMTM3LjgxMjUiIHkyPSIxMzcuODEyNSIvPjx0ZXh0IGZpbGw9IiMwMDAwMDAiIGZvbnQtZmFtaWx5PSJzYW5zLXNlcmlmIiBmb250LXNpemU9IjEzIiBsZW5ndGhBZGp1c3Q9InNwYWNpbmciIHRleHRMZW5ndGg9IjI2IiB4PSI1MCIgeT0iMTM0LjE4NzUiPiYjMzAzMzE7JiMyNDQwNTs8L3RleHQ+PHBvbHlnb24gZmlsbD0iIzE4MTgxOCIgcG9pbnRzPSIzNTAsMTYxLjcyNjYsMzYwLDE2NS43MjY2LDM1MCwxNjkuNzI2NiwzNTQsMTY1LjcyNjYiIHN0eWxlPSJzdHJva2U6IzE4MTgxODtzdHJva2Utd2lkdGg6MS4wOyIvPjxsaW5lIHN0eWxlPSJzdHJva2U6IzE4MTgxODtzdHJva2Utd2lkdGg6MS4wO3N0cm9rZS1kYXNoYXJyYXk6Mi4wLDIuMDsiIHgxPSIyNDciIHgyPSIzNTYiIHkxPSIxNjUuNzI2NiIgeTI9IjE2NS43MjY2Ii8+PHRleHQgZmlsbD0iIzAwMDAwMCIgZm9udC1mYW1pbHk9InNhbnMtc2VyaWYiIGZvbnQtc2l6ZT0iMTMiIGxlbmd0aEFkanVzdD0ic3BhY2luZyIgdGV4dExlbmd0aD0iNzgiIHg9IjI1NCIgeT0iMTYyLjEwMTYiPiYjMjMzOTg7JiMyOTk4MzsmIzIwNDQ5OyYjMjQ2ODc7JiMzNTgzMTsmIzI3NzE0OzwvdGV4dD48cG9seWdvbiBmaWxsPSIjMTgxODE4IiBwb2ludHM9IjM1MCwxODkuNjQwNiwzNjAsMTkzLjY0MDYsMzUwLDE5Ny42NDA2LDM1NCwxOTMuNjQwNiIgc3R5bGU9InN0cm9rZTojMTgxODE4O3N0cm9rZS13aWR0aDoxLjA7Ii8+PGxpbmUgc3R5bGU9InN0cm9rZTojMTgxODE4O3N0cm9rZS13aWR0aDoxLjA7c3Ryb2tlLWRhc2hhcnJheToyLjAsMi4wOyIgeDE9IjI0NyIgeDI9IjM1NiIgeTE9IjE5My42NDA2IiB5Mj0iMTkzLjY0MDYiLz48dGV4dCBmaWxsPSIjMDAwMDAwIiBmb250LWZhbWlseT0ic2Fucy1zZXJpZiIgZm9udC1zaXplPSIxMyIgbGVuZ3RoQWRqdXN0PSJzcGFjaW5nIiB0ZXh0TGVuZ3RoPSIyNiIgeD0iMjU0IiB5PSIxOTAuMDE1NiI+JiMzMDMzMTsmIzI0NDA1OzwvdGV4dD48cG9seWdvbiBmaWxsPSIjMTgxODE4IiBwb2ludHM9IjM1MCwyMTcuNTU0NywzNjAsMjIxLjU1NDcsMzUwLDIyNS41NTQ3LDM1NCwyMjEuNTU0NyIgc3R5bGU9InN0cm9rZTojMTgxODE4O3N0cm9rZS13aWR0aDoxLjA7Ii8+PGxpbmUgc3R5bGU9InN0cm9rZTojMTgxODE4O3N0cm9rZS13aWR0aDoxLjA7c3Ryb2tlLWRhc2hhcnJheToyLjAsMi4wOyIgeDE9IjI0NyIgeDI9IjM1NiIgeTE9IjIyMS41NTQ3IiB5Mj0iMjIxLjU1NDciLz48dGV4dCBmaWxsPSIjMDAwMDAwIiBmb250LWZhbWlseT0ic2Fucy1zZXJpZiIgZm9udC1zaXplPSIxMyIgbGVuZ3RoQWRqdXN0PSJzcGFjaW5nIiB0ZXh0TGVuZ3RoPSI1MiIgeD0iMjU0IiB5PSIyMTcuOTI5NyI+JiMyNzk4MzsmIzM1MjcyOyYjMzU4Mzg7JiMzMTI0Mzs8L3RleHQ+PHBvbHlnb24gZmlsbD0iIzE4MTgxOCIgcG9pbnRzPSIyNTgsMjQ1LjQ2ODgsMjQ4LDI0OS40Njg4LDI1OCwyNTMuNDY4OCwyNTQsMjQ5LjQ2ODgiIHN0eWxlPSJzdHJva2U6IzE4MTgxODtzdHJva2Utd2lkdGg6MS4wOyIvPjxsaW5lIHN0eWxlPSJzdHJva2U6IzE4MTgxODtzdHJva2Utd2lkdGg6MS4wO3N0cm9rZS1kYXNoYXJyYXk6Mi4wLDIuMDsiIHgxPSIyNTIiIHgyPSIzNjEiIHkxPSIyNDkuNDY4OCIgeTI9IjI0OS40Njg4Ii8+PHRleHQgZmlsbD0iIzAwMDAwMCIgZm9udC1mYW1pbHk9InNhbnMtc2VyaWYiIGZvbnQtc2l6ZT0iMTMiIGxlbmd0aEFkanVzdD0ic3BhY2luZyIgdGV4dExlbmd0aD0iNzgiIHg9IjI2NCIgeT0iMjQ1Ljg0MzgiPiYjMzY4MjA7JiMyMjIzODsmIzM1ODM4OyYjMzEyNDM7JiMyMTAxNTsmIzM0OTIwOzwvdGV4dD48cG9seWdvbiBmaWxsPSIjMTgxODE4IiBwb2ludHM9IjM1MCwyNzMuMzgyOCwzNjAsMjc3LjM4MjgsMzUwLDI4MS4zODI4LDM1NCwyNzcuMzgyOCIgc3R5bGU9InN0cm9rZTojMTgxODE4O3N0cm9rZS13aWR0aDoxLjA7Ii8+PGxpbmUgc3R5bGU9InN0cm9rZTojMTgxODE4O3N0cm9rZS13aWR0aDoxLjA7c3Ryb2tlLWRhc2hhcnJheToyLjAsMi4wOyIgeDE9IjI0NyIgeDI9IjM1NiIgeTE9IjI3Ny4zODI4IiB5Mj0iMjc3LjM4MjgiLz48dGV4dCBmaWxsPSIjMDAwMDAwIiBmb250LWZhbWlseT0ic2Fucy1zZXJpZiIgZm9udC1zaXplPSIxMyIgbGVuZ3RoQWRqdXN0PSJzcGFjaW5nIiB0ZXh0TGVuZ3RoPSI1MiIgeD0iMjU0IiB5PSIyNzMuNzU3OCI+JiMzNjE0MTsmIzIwMDgwOyYjMzU4Mzg7JiMzMTI0Mzs8L3RleHQ+PHBvbHlnb24gZmlsbD0iIzE4MTgxOCIgcG9pbnRzPSIyNTgsMzAxLjI5NjksMjQ4LDMwNS4yOTY5LDI1OCwzMDkuMjk2OSwyNTQsMzA1LjI5NjkiIHN0eWxlPSJzdHJva2U6IzE4MTgxODtzdHJva2Utd2lkdGg6MS4wOyIvPjxsaW5lIHN0eWxlPSJzdHJva2U6IzE4MTgxODtzdHJva2Utd2lkdGg6MS4wO3N0cm9rZS1kYXNoYXJyYXk6Mi4wLDIuMDsiIHgxPSIyNTIiIHgyPSIzNjEiIHkxPSIzMDUuMjk2OSIgeTI9IjMwNS4yOTY5Ii8+PHRleHQgZmlsbD0iIzAwMDAwMCIgZm9udC1mYW1pbHk9InNhbnMtc2VyaWYiIGZvbnQtc2l6ZT0iMTMiIGxlbmd0aEFkanVzdD0ic3BhY2luZyIgdGV4dExlbmd0aD0iNTIiIHg9IjI2NCIgeT0iMzAxLjY3MTkiPiYjMjI3ODg7JiMyOTcwMjsmIzM2MTQxOyYjMjAwODA7PC90ZXh0Pjxwb2x5Z29uIGZpbGw9IiMxODE4MTgiIHBvaW50cz0iMzUwLDMyOS4yMTA5LDM2MCwzMzMuMjEwOSwzNTAsMzM3LjIxMDksMzU0LDMzMy4yMTA5IiBzdHlsZT0ic3Ryb2tlOiMxODE4MTg7c3Ryb2tlLXdpZHRoOjEuMDsiLz48bGluZSBzdHlsZT0ic3Ryb2tlOiMxODE4MTg7c3Ryb2tlLXdpZHRoOjEuMDtzdHJva2UtZGFzaGFycmF5OjIuMCwyLjA7IiB4MT0iMjQ3IiB4Mj0iMzU2IiB5MT0iMzMzLjIxMDkiIHkyPSIzMzMuMjEwOSIvPjx0ZXh0IGZpbGw9IiMwMDAwMDAiIGZvbnQtZmFtaWx5PSJzYW5zLXNlcmlmIiBmb250LXNpemU9IjEzIiBsZW5ndGhBZGp1c3Q9InNwYWNpbmciIHRleHRMZW5ndGg9IjUyIiB4PSIyNTQiIHk9IjMyOS41ODU5Ij4mIzI1NTUyOyYjMjAxMzI7JiMyMDMxNjsmIzE5OTk0OzwvdGV4dD48cG9seWdvbiBmaWxsPSIjMTgxODE4IiBwb2ludHM9IjI1OCwzNTcuMTI1LDI0OCwzNjEuMTI1LDI1OCwzNjUuMTI1LDI1NCwzNjEuMTI1IiBzdHlsZT0ic3Ryb2tlOiMxODE4MTg7c3Ryb2tlLXdpZHRoOjEuMDsiLz48bGluZSBzdHlsZT0ic3Ryb2tlOiMxODE4MTg7c3Ryb2tlLXdpZHRoOjEuMDtzdHJva2UtZGFzaGFycmF5OjIuMCwyLjA7IiB4MT0iMjUyIiB4Mj0iMzYxIiB5MT0iMzYxLjEyNSIgeTI9IjM2MS4xMjUiLz48dGV4dCBmaWxsPSIjMDAwMDAwIiBmb250LWZhbWlseT0ic2Fucy1zZXJpZiIgZm9udC1zaXplPSIxMyIgbGVuZ3RoQWRqdXN0PSJzcGFjaW5nIiB0ZXh0TGVuZ3RoPSI1MiIgeD0iMjY0IiB5PSIzNTcuNSI+JiMyMDQ0NTsmIzIzMzg0OyYjMjAzMTY7JiMxOTk5NDs8L3RleHQ+PHBvbHlnb24gZmlsbD0iIzE4MTgxOCIgcG9pbnRzPSIzNTAsMzg1LjAzOTEsMzYwLDM4OS4wMzkxLDM1MCwzOTMuMDM5MSwzNTQsMzg5LjAzOTEiIHN0eWxlPSJzdHJva2U6IzE4MTgxODtzdHJva2Utd2lkdGg6MS4wOyIvPjxsaW5lIHN0eWxlPSJzdHJva2U6IzE4MTgxODtzdHJva2Utd2lkdGg6MS4wO3N0cm9rZS1kYXNoYXJyYXk6Mi4wLDIuMDsiIHgxPSIyNDciIHgyPSIzNTYiIHkxPSIzODkuMDM5MSIgeTI9IjM4OS4wMzkxIi8+PHRleHQgZmlsbD0iIzAwMDAwMCIgZm9udC1mYW1pbHk9InNhbnMtc2VyaWYiIGZvbnQtc2l6ZT0iMTMiIGxlbmd0aEFkanVzdD0ic3BhY2luZyIgdGV4dExlbmd0aD0iNTIiIHg9IjI1NCIgeT0iMzg1LjQxNDEiPiYjMjY1OTc7JiMzMDQ3NTsmIzI1MTA0OyYjMzI0ODk7PC90ZXh0Pjxwb2x5Z29uIGZpbGw9IiMxODE4MTgiIHBvaW50cz0iMjU4LDQxMi45NTMxLDI0OCw0MTYuOTUzMSwyNTgsNDIwLjk1MzEsMjU0LDQxNi45NTMxIiBzdHlsZT0ic3Ryb2tlOiMxODE4MTg7c3Ryb2tlLXdpZHRoOjEuMDsiLz48bGluZSBzdHlsZT0ic3Ryb2tlOiMxODE4MTg7c3Ryb2tlLXdpZHRoOjEuMDtzdHJva2UtZGFzaGFycmF5OjIuMCwyLjA7IiB4MT0iMjUyIiB4Mj0iMzYxIiB5MT0iNDE2Ljk1MzEiIHkyPSI0MTYuOTUzMSIvPjx0ZXh0IGZpbGw9IiMwMDAwMDAiIGZvbnQtZmFtaWx5PSJzYW5zLXNlcmlmIiBmb250LXNpemU9IjEzIiBsZW5ndGhBZGp1c3Q9InNwYWNpbmciIHRleHRMZW5ndGg9IjUyIiB4PSIyNjQiIHk9IjQxMy4zMjgxIj4mIzM2ODIwOyYjMjIyMzg7JiMyNTEwNDsmIzMyNDg5OzwvdGV4dD48cG9seWdvbiBmaWxsPSIjMTgxODE4IiBwb2ludHM9IjM1MCw0NDAuODY3MiwzNjAsNDQ0Ljg2NzIsMzUwLDQ0OC44NjcyLDM1NCw0NDQuODY3MiIgc3R5bGU9InN0cm9rZTojMTgxODE4O3N0cm9rZS13aWR0aDoxLjA7Ii8+PGxpbmUgc3R5bGU9InN0cm9rZTojMTgxODE4O3N0cm9rZS13aWR0aDoxLjA7c3Ryb2tlLWRhc2hhcnJheToyLjAsMi4wOyIgeDE9IjE0MyIgeDI9IjM1NiIgeTE9IjQ0NC44NjcyIiB5Mj0iNDQ0Ljg2NzIiLz48dGV4dCBmaWxsPSIjMDAwMDAwIiBmb250LWZhbWlseT0ic2Fucy1zZXJpZiIgZm9udC1zaXplPSIxMyIgbGVuZ3RoQWRqdXN0PSJzcGFjaW5nIiB0ZXh0TGVuZ3RoPSI1MiIgeD0iMTUwIiB5PSI0NDEuMjQyMiI+JiMzMTk5NTsmIzMyNDc5OyYjMzI1MDA7JiMyNTI1Mjs8L3RleHQ+PHBvbHlnb24gZmlsbD0iIzE4MTgxOCIgcG9pbnRzPSIxNTQsNDY4Ljc4MTMsMTQ0LDQ3Mi43ODEzLDE1NCw0NzYuNzgxMywxNTAsNDcyLjc4MTMiIHN0eWxlPSJzdHJva2U6IzE4MTgxODtzdHJva2Utd2lkdGg6MS4wOyIvPjxsaW5lIHN0eWxlPSJzdHJva2U6IzE4MTgxODtzdHJva2Utd2lkdGg6MS4wO3N0cm9rZS1kYXNoYXJyYXk6Mi4wLDIuMDsiIHgxPSIxNDgiIHgyPSIzNjEiIHkxPSI0NzIuNzgxMyIgeTI9IjQ3Mi43ODEzIi8+PHRleHQgZmlsbD0iIzAwMDAwMCIgZm9udC1mYW1pbHk9InNhbnMtc2VyaWYiIGZvbnQtc2l6ZT0iMTMiIGxlbmd0aEFkanVzdD0ic3BhY2luZyIgdGV4dExlbmd0aD0iNzgiIHg9IjE2MCIgeT0iNDY5LjE1NjMiPiYjMjI3ODg7JiMyOTcwMjsmIzMyNTAwOyYjMjUyNTI7JiMzNTgzMTsmIzI3NzE0OzwvdGV4dD48cG9seWdvbiBmaWxsPSIjMTgxODE4IiBwb2ludHM9IjQ1OCw0OTYuNjk1Myw0NjgsNTAwLjY5NTMsNDU4LDUwNC42OTUzLDQ2Miw1MDAuNjk1MyIgc3R5bGU9InN0cm9rZTojMTgxODE4O3N0cm9rZS13aWR0aDoxLjA7Ii8+PGxpbmUgc3R5bGU9InN0cm9rZTojMTgxODE4O3N0cm9rZS13aWR0aDoxLjA7c3Ryb2tlLWRhc2hhcnJheToyLjAsMi4wOyIgeDE9IjQzIiB4Mj0iNDY0IiB5MT0iNTAwLjY5NTMiIHkyPSI1MDAuNjk1MyIvPjx0ZXh0IGZpbGw9IiMwMDAwMDAiIGZvbnQtZmFtaWx5PSJzYW5zLXNlcmlmIiBmb250LXNpemU9IjEzIiBsZW5ndGhBZGp1c3Q9InNwYWNpbmciIHRleHRMZW5ndGg9Ijc4IiB4PSI1MCIgeT0iNDk3LjA3MDMiPiYjMjMzOTg7JiMyOTk4MzsmIzIwNDQ5OyYjMjQ2ODc7JiMzNTgzMTsmIzI3NzE0OzwvdGV4dD48cG9seWdvbiBmaWxsPSIjMTgxODE4IiBwb2ludHM9IjQ1OCw1MjQuNjA5NCw0NjgsNTI4LjYwOTQsNDU4LDUzMi42MDk0LDQ2Miw1MjguNjA5NCIgc3R5bGU9InN0cm9rZTojMTgxODE4O3N0cm9rZS13aWR0aDoxLjA7Ii8+PGxpbmUgc3R5bGU9InN0cm9rZTojMTgxODE4O3N0cm9rZS13aWR0aDoxLjA7c3Ryb2tlLWRhc2hhcnJheToyLjAsMi4wOyIgeDE9IjQzIiB4Mj0iNDY0IiB5MT0iNTI4LjYwOTQiIHkyPSI1MjguNjA5NCIvPjx0ZXh0IGZpbGw9IiMwMDAwMDAiIGZvbnQtZmFtaWx5PSJzYW5zLXNlcmlmIiBmb250LXNpemU9IjEzIiBsZW5ndGhBZGp1c3Q9InNwYWNpbmciIHRleHRMZW5ndGg9IjI2IiB4PSI1MCIgeT0iNTI0Ljk4NDQiPiYjMzAzMzE7JiMyNDQwNTs8L3RleHQ+PHBvbHlnb24gZmlsbD0iIzE4MTgxOCIgcG9pbnRzPSI0NTgsNTUyLjUyMzQsNDY4LDU1Ni41MjM0LDQ1OCw1NjAuNTIzNCw0NjIsNTU2LjUyMzQiIHN0eWxlPSJzdHJva2U6IzE4MTgxODtzdHJva2Utd2lkdGg6MS4wOyIvPjxsaW5lIHN0eWxlPSJzdHJva2U6IzE4MTgxODtzdHJva2Utd2lkdGg6MS4wO3N0cm9rZS1kYXNoYXJyYXk6Mi4wLDIuMDsiIHgxPSIyNDciIHgyPSI0NjQiIHkxPSI1NTYuNTIzNCIgeTI9IjU1Ni41MjM0Ii8+PHRleHQgZmlsbD0iIzAwMDAwMCIgZm9udC1mYW1pbHk9InNhbnMtc2VyaWYiIGZvbnQtc2l6ZT0iMTMiIGxlbmd0aEFkanVzdD0ic3BhY2luZyIgdGV4dExlbmd0aD0iNzgiIHg9IjI1NCIgeT0iNTUyLjg5ODQiPiYjMjMzOTg7JiMyOTk4MzsmIzIwNDQ5OyYjMjQ2ODc7JiMzNTgzMTsmIzI3NzE0OzwvdGV4dD48cG9seWdvbiBmaWxsPSIjMTgxODE4IiBwb2ludHM9IjQ1OCw1ODAuNDM3NSw0NjgsNTg0LjQzNzUsNDU4LDU4OC40Mzc1LDQ2Miw1ODQuNDM3NSIgc3R5bGU9InN0cm9rZTojMTgxODE4O3N0cm9rZS13aWR0aDoxLjA7Ii8+PGxpbmUgc3R5bGU9InN0cm9rZTojMTgxODE4O3N0cm9rZS13aWR0aDoxLjA7c3Ryb2tlLWRhc2hhcnJheToyLjAsMi4wOyIgeDE9IjI0NyIgeDI9IjQ2NCIgeTE9IjU4NC40Mzc1IiB5Mj0iNTg0LjQzNzUiLz48dGV4dCBmaWxsPSIjMDAwMDAwIiBmb250LWZhbWlseT0ic2Fucy1zZXJpZiIgZm9udC1zaXplPSIxMyIgbGVuZ3RoQWRqdXN0PSJzcGFjaW5nIiB0ZXh0TGVuZ3RoPSIyNiIgeD0iMjU0IiB5PSI1ODAuODEyNSI+JiMzMDMzMTsmIzI0NDA1OzwvdGV4dD48cG9seWdvbiBmaWxsPSIjMTgxODE4IiBwb2ludHM9IjQ1OCw2MDguMzUxNiw0NjgsNjEyLjM1MTYsNDU4LDYxNi4zNTE2LDQ2Miw2MTIuMzUxNiIgc3R5bGU9InN0cm9rZTojMTgxODE4O3N0cm9rZS13aWR0aDoxLjA7Ii8+PGxpbmUgc3R5bGU9InN0cm9rZTojMTgxODE4O3N0cm9rZS13aWR0aDoxLjA7c3Ryb2tlLWRhc2hhcnJheToyLjAsMi4wOyIgeDE9IjI0NyIgeDI9IjQ2NCIgeTE9IjYxMi4zNTE2IiB5Mj0iNjEyLjM1MTYiLz48dGV4dCBmaWxsPSIjMDAwMDAwIiBmb250LWZhbWlseT0ic2Fucy1zZXJpZiIgZm9udC1zaXplPSIxMyIgbGVuZ3RoQWRqdXN0PSJzcGFjaW5nIiB0ZXh0TGVuZ3RoPSI1MiIgeD0iMjU0IiB5PSI2MDguNzI2NiI+JiMyNzk4MzsmIzM1MjcyOyYjMzU4Mzg7JiMzMTI0Mzs8L3RleHQ+PHBvbHlnb24gZmlsbD0iIzE4MTgxOCIgcG9pbnRzPSI0NTgsNjM2LjI2NTYsNDY4LDY0MC4yNjU2LDQ1OCw2NDQuMjY1Niw0NjIsNjQwLjI2NTYiIHN0eWxlPSJzdHJva2U6IzE4MTgxODtzdHJva2Utd2lkdGg6MS4wOyIvPjxsaW5lIHN0eWxlPSJzdHJva2U6IzE4MTgxODtzdHJva2Utd2lkdGg6MS4wO3N0cm9rZS1kYXNoYXJyYXk6Mi4wLDIuMDsiIHgxPSIzNjIiIHgyPSI0NjQiIHkxPSI2NDAuMjY1NiIgeTI9IjY0MC4yNjU2Ii8+PHRleHQgZmlsbD0iIzAwMDAwMCIgZm9udC1mYW1pbHk9InNhbnMtc2VyaWYiIGZvbnQtc2l6ZT0iMTMiIGxlbmd0aEFkanVzdD0ic3BhY2luZyIgdGV4dExlbmd0aD0iNzgiIHg9IjM2OSIgeT0iNjM2LjY0MDYiPiYjMzY4MjA7JiMyMjIzODsmIzM1ODM4OyYjMzEyNDM7JiMyMTAxNTsmIzM0OTIwOzwvdGV4dD48cG9seWdvbiBmaWxsPSIjMTgxODE4IiBwb2ludHM9IjQ1OCw2NjQuMTc5Nyw0NjgsNjY4LjE3OTcsNDU4LDY3Mi4xNzk3LDQ2Miw2NjguMTc5NyIgc3R5bGU9InN0cm9rZTojMTgxODE4O3N0cm9rZS13aWR0aDoxLjA7Ii8+PGxpbmUgc3R5bGU9InN0cm9rZTojMTgxODE4O3N0cm9rZS13aWR0aDoxLjA7c3Ryb2tlLWRhc2hhcnJheToyLjAsMi4wOyIgeDE9IjI0NyIgeDI9IjQ2NCIgeTE9IjY2OC4xNzk3IiB5Mj0iNjY4LjE3OTciLz48dGV4dCBmaWxsPSIjMDAwMDAwIiBmb250LWZhbWlseT0ic2Fucy1zZXJpZiIgZm9udC1zaXplPSIxMyIgbGVuZ3RoQWRqdXN0PSJzcGFjaW5nIiB0ZXh0TGVuZ3RoPSI1MiIgeD0iMjU0IiB5PSI2NjQuNTU0NyI+JiMzNjE0MTsmIzIwMDgwOyYjMzU4Mzg7JiMzMTI0Mzs8L3RleHQ+PHBvbHlnb24gZmlsbD0iIzE4MTgxOCIgcG9pbnRzPSI0NTgsNjkyLjA5MzgsNDY4LDY5Ni4wOTM4LDQ1OCw3MDAuMDkzOCw0NjIsNjk2LjA5MzgiIHN0eWxlPSJzdHJva2U6IzE4MTgxODtzdHJva2Utd2lkdGg6MS4wOyIvPjxsaW5lIHN0eWxlPSJzdHJva2U6IzE4MTgxODtzdHJva2Utd2lkdGg6MS4wO3N0cm9rZS1kYXNoYXJyYXk6Mi4wLDIuMDsiIHgxPSIzNjIiIHgyPSI0NjQiIHkxPSI2OTYuMDkzOCIgeTI9IjY5Ni4wOTM4Ii8+PHRleHQgZmlsbD0iIzAwMDAwMCIgZm9udC1mYW1pbHk9InNhbnMtc2VyaWYiIGZvbnQtc2l6ZT0iMTMiIGxlbmd0aEFkanVzdD0ic3BhY2luZyIgdGV4dExlbmd0aD0iNTIiIHg9IjM2OSIgeT0iNjkyLjQ2ODgiPiYjMjI3ODg7JiMyOTcwMjsmIzM2MTQxOyYjMjAwODA7PC90ZXh0Pjxwb2x5Z29uIGZpbGw9IiMxODE4MTgiIHBvaW50cz0iNDU4LDcyMC4wMDc4LDQ2OCw3MjQuMDA3OCw0NTgsNzI4LjAwNzgsNDYyLDcyNC4wMDc4IiBzdHlsZT0ic3Ryb2tlOiMxODE4MTg7c3Ryb2tlLXdpZHRoOjEuMDsiLz48bGluZSBzdHlsZT0ic3Ryb2tlOiMxODE4MTg7c3Ryb2tlLXdpZHRoOjEuMDtzdHJva2UtZGFzaGFycmF5OjIuMCwyLjA7IiB4MT0iMjQ3IiB4Mj0iNDY0IiB5MT0iNzI0LjAwNzgiIHkyPSI3MjQuMDA3OCIvPjx0ZXh0IGZpbGw9IiMwMDAwMDAiIGZvbnQtZmFtaWx5PSJzYW5zLXNlcmlmIiBmb250LXNpemU9IjEzIiBsZW5ndGhBZGp1c3Q9InNwYWNpbmciIHRleHRMZW5ndGg9IjUyIiB4PSIyNTQiIHk9IjcyMC4zODI4Ij4mIzI1NTUyOyYjMjAxMzI7JiMyMDMxNjsmIzE5OTk0OzwvdGV4dD48cG9seWdvbiBmaWxsPSIjMTgxODE4IiBwb2ludHM9IjQ1OCw3NDcuOTIxOSw0NjgsNzUxLjkyMTksNDU4LDc1NS45MjE5LDQ2Miw3NTEuOTIxOSIgc3R5bGU9InN0cm9rZTojMTgxODE4O3N0cm9rZS13aWR0aDoxLjA7Ii8+PGxpbmUgc3R5bGU9InN0cm9rZTojMTgxODE4O3N0cm9rZS13aWR0aDoxLjA7c3Ryb2tlLWRhc2hhcnJheToyLjAsMi4wOyIgeDE9IjM2MiIgeDI9IjQ2NCIgeTE9Ijc1MS45MjE5IiB5Mj0iNzUxLjkyMTkiLz48dGV4dCBmaWxsPSIjMDAwMDAwIiBmb250LWZhbWlseT0ic2Fucy1zZXJpZiIgZm9udC1zaXplPSIxMyIgbGVuZ3RoQWRqdXN0PSJzcGFjaW5nIiB0ZXh0TGVuZ3RoPSI1MiIgeD0iMzY5IiB5PSI3NDguMjk2OSI+JiMyMDQ0NTsmIzIzMzg0OyYjMjAzMTY7JiMxOTk5NDs8L3RleHQ+PHBvbHlnb24gZmlsbD0iIzE4MTgxOCIgcG9pbnRzPSI0NTgsNzc1LjgzNTksNDY4LDc3OS44MzU5LDQ1OCw3ODMuODM1OSw0NjIsNzc5LjgzNTkiIHN0eWxlPSJzdHJva2U6IzE4MTgxODtzdHJva2Utd2lkdGg6MS4wOyIvPjxsaW5lIHN0eWxlPSJzdHJva2U6IzE4MTgxODtzdHJva2Utd2lkdGg6MS4wO3N0cm9rZS1kYXNoYXJyYXk6Mi4wLDIuMDsiIHgxPSIyNDciIHgyPSI0NjQiIHkxPSI3NzkuODM1OSIgeTI9Ijc3OS44MzU5Ii8+PHRleHQgZmlsbD0iIzAwMDAwMCIgZm9udC1mYW1pbHk9InNhbnMtc2VyaWYiIGZvbnQtc2l6ZT0iMTMiIGxlbmd0aEFkanVzdD0ic3BhY2luZyIgdGV4dExlbmd0aD0iNTIiIHg9IjI1NCIgeT0iNzc2LjIxMDkiPiYjMjY1OTc7JiMzMDQ3NTsmIzI1MTA0OyYjMzI0ODk7PC90ZXh0Pjxwb2x5Z29uIGZpbGw9IiMxODE4MTgiIHBvaW50cz0iNDU4LDgwMy43NSw0NjgsODA3Ljc1LDQ1OCw4MTEuNzUsNDYyLDgwNy43NSIgc3R5bGU9InN0cm9rZTojMTgxODE4O3N0cm9rZS13aWR0aDoxLjA7Ii8+PGxpbmUgc3R5bGU9InN0cm9rZTojMTgxODE4O3N0cm9rZS13aWR0aDoxLjA7c3Ryb2tlLWRhc2hhcnJheToyLjAsMi4wOyIgeDE9IjM2MiIgeDI9IjQ2NCIgeTE9IjgwNy43NSIgeTI9IjgwNy43NSIvPjx0ZXh0IGZpbGw9IiMwMDAwMDAiIGZvbnQtZmFtaWx5PSJzYW5zLXNlcmlmIiBmb250LXNpemU9IjEzIiBsZW5ndGhBZGp1c3Q9InNwYWNpbmciIHRleHRMZW5ndGg9IjUyIiB4PSIzNjkiIHk9IjgwNC4xMjUiPiYjMzY4MjA7JiMyMjIzODsmIzI1MTA0OyYjMzI0ODk7PC90ZXh0PjwhLS1TUkM9W2RQRkRKaTkwNThOdFZPZjlEd244VEVsMm44Vm0wS1FBSWZIWU1lbmhxMVdZQ00wNEhLTC1hV2ZycU84MVdiMEJCekVQZ015WFQ0Mkd1QkozaGl0U1N5eFNFX1NCMFRTUzRUbDRqSnh3b1dkZ0lLbS1XbWdDMF9LT0llY0JjN200M2s2ZjZicXdLSEJkaVhIOUE3OUtLUzdzYlkyNDBEOFVsWXpyUDVPUy1ydzBhTUgyMFZqZ0wwNUcxSUJJY2lYZWE0QUw1N0lTd09rcHlwcWY3ZkRmV1Q1bTFaS3F3QTFTY3ZYcmFoejZUb0xuUWVrQlJObmh1YndBdzVkMUNtbzdUeTZBOFRXMXpEU1BydDZndlJSdy0yRkRnWVBGNWhBQm1rZzFMcnBNb04zeXZxOFRZclpMekhjUzNmbGJ1YnhFUk1SU3JjV3dXdF9ocmRWZ1pXbGVmS0FyQUZGZXJkTlVUQlRoRThGc1BrYjhrdmd5OU5OV3haZ05UdVFRT3ZVVHBzVlVONlZ5WWVwSU5Da1BNdHFadklwRXY4ZHJsamNxUHJnd3RkdVJ1TnFHZ3VqbEQ3T1FqUGxGYjJmY01fWkJvUUhmYkRPTmNvXzE5M28wUWRHRXNVSWtqNTNxR09PZlA2bW5SbzJ0SHoxaWtneUJOTjI2YzNPMVNNOXgxMFFBUVVGQjVkRUVtVWJZc2xZMmpheGp1STVvZVNRcU1RUmsxbTAwXS0tPjwvZz48L3N2Zz4=;" vertex="1" parent="1">
            <mxGeometry x="-1360" y="2440" width="511" height="905" as="geometry" />
          </mxCell>
        </UserObject>
        <UserObject label="" plantUmlData="{&#xa;  &quot;data&quot;: &quot;@startuml OnlineLearningPlatform_ER\n\n!define Entity1 &lt;&lt;Entity&gt;&gt;\n!define Entity2 &lt;&lt;Entity&gt;&gt;\n\n&#39; 定义实体\nentity \&quot;用户\&quot; as User {\n  + 用户ID (PK)\n  --\n  用户名\n  密码\n  电子邮件\n  // 其他用户属性\n}\n\nentity \&quot;课程\&quot; as Course {\n  + 课程ID (PK)\n  --\n  课程名称\n  学科\n  主题\n  // 其他课程属性\n}\n\nentity \&quot;成绩\&quot; as Grade {\n  + 成绩ID (PK)\n  --\n  用户ID (FK)\n  课程ID (FK)\n  分数\n  // 其他成绩属性\n}\n\nentity \&quot;教育资源\&quot; as EducationalResource {\n  + 资源ID (PK)\n  --\n  资源名称\n  类型\n  // 其他资源属性\n}\n\nentity \&quot;课程购买记录\&quot; as CoursePurchase {\n  + 记录ID (PK)\n  --\n  用户ID (FK)\n  课程ID (FK)\n  付款状态\n  // 其他购买记录属性\n}\n\n&#39; 定义关系\nUser -- Course : 选修\nUser -- Grade : 拥有\nUser -- CoursePurchase : 购买\nCourse -- EducationalResource : 包含\nCoursePurchase -- Course : 包括\n\n@enduml\n&quot;,&#xa;  &quot;format&quot;: &quot;svg&quot;&#xa;}" id="3bJKWBTT_QmVk4gQoxYi-5">
          <mxCell style="shape=image;noLabel=1;verticalAlign=top;aspect=fixed;imageAspect=0;image=data:image/svg+xml,PD94bWwgdmVyc2lvbj0iMS4wIiBlbmNvZGluZz0idXMtYXNjaWkiIHN0YW5kYWxvbmU9Im5vIj8+PHN2ZyB4bWxucz0iaHR0cDovL3d3dy53My5vcmcvMjAwMC9zdmciIHhtbG5zOnhsaW5rPSJodHRwOi8vd3d3LnczLm9yZy8xOTk5L3hsaW5rIiBjb250ZW50U3R5bGVUeXBlPSJ0ZXh0L2NzcyIgaGVpZ2h0PSI3MTVweCIgcHJlc2VydmVBc3BlY3RSYXRpbz0ibm9uZSIgc3R5bGU9IndpZHRoOjQwNHB4O2hlaWdodDo3MTVweDtiYWNrZ3JvdW5kOiNGRkZGRkY7IiB2ZXJzaW9uPSIxLjEiIHZpZXdCb3g9IjAgMCA0MDQgNzE1IiB3aWR0aD0iNDA0cHgiIHpvb21BbmRQYW49Im1hZ25pZnkiPjxkZWZzLz48Zz48IS0tY2xhc3MgVXNlci0tPjxnIGlkPSJlbGVtX1VzZXIiPjxyZWN0IGNvZGVMaW5lPSI1IiBmaWxsPSIjRjFGMUYxIiBoZWlnaHQ9IjEyMi45MjE5IiBpZD0iVXNlciIgcng9IjIuNSIgcnk9IjIuNSIgc3R5bGU9InN0cm9rZTojMTgxODE4O3N0cm9rZS13aWR0aDowLjU7IiB3aWR0aD0iMTE3IiB4PSIxMDAiIHk9IjciLz48ZWxsaXBzZSBjeD0iMTQwLjY1IiBjeT0iMjMiIGZpbGw9IiNBREQxQjIiIHJ4PSIxMSIgcnk9IjExIiBzdHlsZT0ic3Ryb2tlOiMxODE4MTg7c3Ryb2tlLXdpZHRoOjEuMDsiLz48cGF0aCBkPSJNMTQ0LjI3NSwyOSBMMTQ0LjI3NSwyNy4yNSBMMTM4Ljk2MjUsMjcuMjUgUTEzOC45NjI1LDI3LjI1IDEzOC45NjI1LDIzLjY4NzUgTDE0My4yMTI1LDIzLjY4NzUgTDE0My4yMTI1LDIxLjkzNzUgTDEzOC45NjI1LDIxLjkzNzUgTDEzOC45NjI1LDE5LjQzNzUgTDE0NC4yNzUsMTkuNDM3NSBMMTQ0LjI3NSwxNy42ODc1IEwxMzcuMjEyNSwxNy42ODc1IFExMzcuMjEyNSwxNy42ODc1IDEzNy4yMTI1LDI5IEwxNDQuMjc1LDI5IFogIiBmaWxsPSIjMDAwMDAwIi8+PHRleHQgZmlsbD0iIzAwMDAwMCIgZm9udC1mYW1pbHk9InNhbnMtc2VyaWYiIGZvbnQtc2l6ZT0iMTQiIGxlbmd0aEFkanVzdD0ic3BhY2luZyIgdGV4dExlbmd0aD0iMjgiIHg9IjE2MC4zNSIgeT0iMjguNzQyMiI+JiMyOTk5MjsmIzI1MTQzOzwvdGV4dD48bGluZSBzdHlsZT0ic3Ryb2tlOiMxODE4MTg7c3Ryb2tlLXdpZHRoOjAuNTsiIHgxPSIxMDEiIHgyPSIyMTYiIHkxPSIzOSIgeTI9IjM5Ii8+PGVsbGlwc2UgY3g9IjExMSIgY3k9IjUxLjk5MjIiIGZpbGw9IiM4NEJFODQiIHJ4PSIzIiByeT0iMyIgc3R5bGU9InN0cm9rZTojMDM4MDQ4O3N0cm9rZS13aWR0aDoxLjA7Ii8+PHRleHQgZmlsbD0iIzAwMDAwMCIgZm9udC1mYW1pbHk9InNhbnMtc2VyaWYiIGZvbnQtc2l6ZT0iMTQiIGxlbmd0aEFkanVzdD0ic3BhY2luZyIgdGV4dExlbmd0aD0iNzkiIHg9IjEyMCIgeT0iNTYuMjM0NCI+JiMyOTk5MjsmIzI1MTQzO0lEIChQSyk8L3RleHQ+PGxpbmUgc3R5bGU9InN0cm9rZTojMTgxODE4O3N0cm9rZS13aWR0aDoxLjA7IiB4MT0iMTAxIiB4Mj0iMjE2IiB5MT0iNjEuOTg0NCIgeTI9IjYxLjk4NDQiLz48dGV4dCBmaWxsPSIjMDAwMDAwIiBmb250LWZhbWlseT0ic2Fucy1zZXJpZiIgZm9udC1zaXplPSIxNCIgbGVuZ3RoQWRqdXN0PSJzcGFjaW5nIiB0ZXh0TGVuZ3RoPSI0MiIgeD0iMTA2IiB5PSI3OS4yMTg4Ij4mIzI5OTkyOyYjMjUxNDM7JiMyMTUxNzs8L3RleHQ+PHRleHQgZmlsbD0iIzAwMDAwMCIgZm9udC1mYW1pbHk9InNhbnMtc2VyaWYiIGZvbnQtc2l6ZT0iMTQiIGxlbmd0aEFkanVzdD0ic3BhY2luZyIgdGV4dExlbmd0aD0iMjgiIHg9IjEwNiIgeT0iOTQuMjAzMSI+JiMyMzQ5NDsmIzMwNzIxOzwvdGV4dD48dGV4dCBmaWxsPSIjMDAwMDAwIiBmb250LWZhbWlseT0ic2Fucy1zZXJpZiIgZm9udC1zaXplPSIxNCIgbGVuZ3RoQWRqdXN0PSJzcGFjaW5nIiB0ZXh0TGVuZ3RoPSI1NiIgeD0iMTA2IiB5PSIxMDkuMTg3NSI+JiMzMDAwNTsmIzIzMzc2OyYjMzcwMzg7JiMyMDIxNDs8L3RleHQ+PHRleHQgZmlsbD0iIzAwMDAwMCIgZm9udC1mYW1pbHk9InNhbnMtc2VyaWYiIGZvbnQtc2l6ZT0iMTQiIGxlbmd0aEFkanVzdD0ic3BhY2luZyIgdGV4dExlbmd0aD0iMTA1IiB4PSIxMDYiIHk9IjEyNC4xNzE5Ij4vLyAmIzIwODU0OyYjMjAxODI7JiMyOTk5MjsmIzI1MTQzOyYjMjM2NDY7JiMyNDYxNTs8L3RleHQ+PC9nPjwhLS1jbGFzcyBDb3Vyc2UtLT48ZyBpZD0iZWxlbV9Db3Vyc2UiPjxyZWN0IGNvZGVMaW5lPSIxNCIgZmlsbD0iI0YxRjFGMSIgaGVpZ2h0PSIxMjIuOTIxOSIgaWQ9IkNvdXJzZSIgcng9IjIuNSIgcnk9IjIuNSIgc3R5bGU9InN0cm9rZTojMTgxODE4O3N0cm9rZS13aWR0aDowLjU7IiB3aWR0aD0iMTE3IiB4PSI3IiB5PSI0MDMiLz48ZWxsaXBzZSBjeD0iNDcuNjUiIGN5PSI0MTkiIGZpbGw9IiNBREQxQjIiIHJ4PSIxMSIgcnk9IjExIiBzdHlsZT0ic3Ryb2tlOiMxODE4MTg7c3Ryb2tlLXdpZHRoOjEuMDsiLz48cGF0aCBkPSJNNTEuMjc1LDQyNSBMNTEuMjc1LDQyMy4yNSBMNDUuOTYyNSw0MjMuMjUgUTQ1Ljk2MjUsNDIzLjI1IDQ1Ljk2MjUsNDE5LjY4NzUgTDUwLjIxMjUsNDE5LjY4NzUgTDUwLjIxMjUsNDE3LjkzNzUgTDQ1Ljk2MjUsNDE3LjkzNzUgTDQ1Ljk2MjUsNDE1LjQzNzUgTDUxLjI3NSw0MTUuNDM3NSBMNTEuMjc1LDQxMy42ODc1IEw0NC4yMTI1LDQxMy42ODc1IFE0NC4yMTI1LDQxMy42ODc1IDQ0LjIxMjUsNDI1IEw1MS4yNzUsNDI1IFogIiBmaWxsPSIjMDAwMDAwIi8+PHRleHQgZmlsbD0iIzAwMDAwMCIgZm9udC1mYW1pbHk9InNhbnMtc2VyaWYiIGZvbnQtc2l6ZT0iMTQiIGxlbmd0aEFkanVzdD0ic3BhY2luZyIgdGV4dExlbmd0aD0iMjgiIHg9IjY3LjM1IiB5PSI0MjQuNzQyMiI+JiMzNTgzODsmIzMxMjQzOzwvdGV4dD48bGluZSBzdHlsZT0ic3Ryb2tlOiMxODE4MTg7c3Ryb2tlLXdpZHRoOjAuNTsiIHgxPSI4IiB4Mj0iMTIzIiB5MT0iNDM1IiB5Mj0iNDM1Ii8+PGVsbGlwc2UgY3g9IjE4IiBjeT0iNDQ3Ljk5MjIiIGZpbGw9IiM4NEJFODQiIHJ4PSIzIiByeT0iMyIgc3R5bGU9InN0cm9rZTojMDM4MDQ4O3N0cm9rZS13aWR0aDoxLjA7Ii8+PHRleHQgZmlsbD0iIzAwMDAwMCIgZm9udC1mYW1pbHk9InNhbnMtc2VyaWYiIGZvbnQtc2l6ZT0iMTQiIGxlbmd0aEFkanVzdD0ic3BhY2luZyIgdGV4dExlbmd0aD0iNzkiIHg9IjI3IiB5PSI0NTIuMjM0NCI+JiMzNTgzODsmIzMxMjQzO0lEIChQSyk8L3RleHQ+PGxpbmUgc3R5bGU9InN0cm9rZTojMTgxODE4O3N0cm9rZS13aWR0aDoxLjA7IiB4MT0iOCIgeDI9IjEyMyIgeTE9IjQ1Ny45ODQ0IiB5Mj0iNDU3Ljk4NDQiLz48dGV4dCBmaWxsPSIjMDAwMDAwIiBmb250LWZhbWlseT0ic2Fucy1zZXJpZiIgZm9udC1zaXplPSIxNCIgbGVuZ3RoQWRqdXN0PSJzcGFjaW5nIiB0ZXh0TGVuZ3RoPSI1NiIgeD0iMTMiIHk9IjQ3NS4yMTg4Ij4mIzM1ODM4OyYjMzEyNDM7JiMyMTUxNzsmIzMxMjE2OzwvdGV4dD48dGV4dCBmaWxsPSIjMDAwMDAwIiBmb250LWZhbWlseT0ic2Fucy1zZXJpZiIgZm9udC1zaXplPSIxNCIgbGVuZ3RoQWRqdXN0PSJzcGFjaW5nIiB0ZXh0TGVuZ3RoPSIyOCIgeD0iMTMiIHk9IjQ5MC4yMDMxIj4mIzIzMzk4OyYjMzExODU7PC90ZXh0Pjx0ZXh0IGZpbGw9IiMwMDAwMDAiIGZvbnQtZmFtaWx5PSJzYW5zLXNlcmlmIiBmb250LXNpemU9IjE0IiBsZW5ndGhBZGp1c3Q9InNwYWNpbmciIHRleHRMZW5ndGg9IjI4IiB4PSIxMyIgeT0iNTA1LjE4NzUiPiYjMjAwMjc7JiMzOTA2NDs8L3RleHQ+PHRleHQgZmlsbD0iIzAwMDAwMCIgZm9udC1mYW1pbHk9InNhbnMtc2VyaWYiIGZvbnQtc2l6ZT0iMTQiIGxlbmd0aEFkanVzdD0ic3BhY2luZyIgdGV4dExlbmd0aD0iMTA1IiB4PSIxMyIgeT0iNTIwLjE3MTkiPi8vICYjMjA4NTQ7JiMyMDE4MjsmIzM1ODM4OyYjMzEyNDM7JiMyMzY0NjsmIzI0NjE1OzwvdGV4dD48L2c+PCEtLWNsYXNzIEdyYWRlLS0+PGcgaWQ9ImVsZW1fR3JhZGUiPjxyZWN0IGNvZGVMaW5lPSIyMyIgZmlsbD0iI0YxRjFGMSIgaGVpZ2h0PSIxMjIuOTIxOSIgaWQ9IkdyYWRlIiByeD0iMi41IiByeT0iMi41IiBzdHlsZT0ic3Ryb2tlOiMxODE4MTg7c3Ryb2tlLXdpZHRoOjAuNTsiIHdpZHRoPSIxMTciIHg9IjEwMCIgeT0iMjA1Ii8+PGVsbGlwc2UgY3g9IjE0MC42NSIgY3k9IjIyMSIgZmlsbD0iI0FERDFCMiIgcng9IjExIiByeT0iMTEiIHN0eWxlPSJzdHJva2U6IzE4MTgxODtzdHJva2Utd2lkdGg6MS4wOyIvPjxwYXRoIGQ9Ik0xNDQuMjc1LDIyNyBMMTQ0LjI3NSwyMjUuMjUgTDEzOC45NjI1LDIyNS4yNSBRMTM4Ljk2MjUsMjI1LjI1IDEzOC45NjI1LDIyMS42ODc1IEwxNDMuMjEyNSwyMjEuNjg3NSBMMTQzLjIxMjUsMjE5LjkzNzUgTDEzOC45NjI1LDIxOS45Mzc1IEwxMzguOTYyNSwyMTcuNDM3NSBMMTQ0LjI3NSwyMTcuNDM3NSBMMTQ0LjI3NSwyMTUuNjg3NSBMMTM3LjIxMjUsMjE1LjY4NzUgUTEzNy4yMTI1LDIxNS42ODc1IDEzNy4yMTI1LDIyNyBMMTQ0LjI3NSwyMjcgWiAiIGZpbGw9IiMwMDAwMDAiLz48dGV4dCBmaWxsPSIjMDAwMDAwIiBmb250LWZhbWlseT0ic2Fucy1zZXJpZiIgZm9udC1zaXplPSIxNCIgbGVuZ3RoQWRqdXN0PSJzcGFjaW5nIiB0ZXh0TGVuZ3RoPSIyOCIgeD0iMTYwLjM1IiB5PSIyMjYuNzQyMiI+JiMyNTEwNDsmIzMyNDg5OzwvdGV4dD48bGluZSBzdHlsZT0ic3Ryb2tlOiMxODE4MTg7c3Ryb2tlLXdpZHRoOjAuNTsiIHgxPSIxMDEiIHgyPSIyMTYiIHkxPSIyMzciIHkyPSIyMzciLz48ZWxsaXBzZSBjeD0iMTExIiBjeT0iMjQ5Ljk5MjIiIGZpbGw9IiM4NEJFODQiIHJ4PSIzIiByeT0iMyIgc3R5bGU9InN0cm9rZTojMDM4MDQ4O3N0cm9rZS13aWR0aDoxLjA7Ii8+PHRleHQgZmlsbD0iIzAwMDAwMCIgZm9udC1mYW1pbHk9InNhbnMtc2VyaWYiIGZvbnQtc2l6ZT0iMTQiIGxlbmd0aEFkanVzdD0ic3BhY2luZyIgdGV4dExlbmd0aD0iNzkiIHg9IjEyMCIgeT0iMjU0LjIzNDQiPiYjMjUxMDQ7JiMzMjQ4OTtJRCAoUEspPC90ZXh0PjxsaW5lIHN0eWxlPSJzdHJva2U6IzE4MTgxODtzdHJva2Utd2lkdGg6MS4wOyIgeDE9IjEwMSIgeDI9IjIxNiIgeTE9IjI1OS45ODQ0IiB5Mj0iMjU5Ljk4NDQiLz48dGV4dCBmaWxsPSIjMDAwMDAwIiBmb250LWZhbWlseT0ic2Fucy1zZXJpZiIgZm9udC1zaXplPSIxNCIgbGVuZ3RoQWRqdXN0PSJzcGFjaW5nIiB0ZXh0TGVuZ3RoPSI3OSIgeD0iMTA2IiB5PSIyNzcuMjE4OCI+JiMyOTk5MjsmIzI1MTQzO0lEIChGSyk8L3RleHQ+PHRleHQgZmlsbD0iIzAwMDAwMCIgZm9udC1mYW1pbHk9InNhbnMtc2VyaWYiIGZvbnQtc2l6ZT0iMTQiIGxlbmd0aEFkanVzdD0ic3BhY2luZyIgdGV4dExlbmd0aD0iNzkiIHg9IjEwNiIgeT0iMjkyLjIwMzEiPiYjMzU4Mzg7JiMzMTI0MztJRCAoRkspPC90ZXh0Pjx0ZXh0IGZpbGw9IiMwMDAwMDAiIGZvbnQtZmFtaWx5PSJzYW5zLXNlcmlmIiBmb250LXNpemU9IjE0IiBsZW5ndGhBZGp1c3Q9InNwYWNpbmciIHRleHRMZW5ndGg9IjI4IiB4PSIxMDYiIHk9IjMwNy4xODc1Ij4mIzIwOTk4OyYjMjU5Njg7PC90ZXh0Pjx0ZXh0IGZpbGw9IiMwMDAwMDAiIGZvbnQtZmFtaWx5PSJzYW5zLXNlcmlmIiBmb250LXNpemU9IjE0IiBsZW5ndGhBZGp1c3Q9InNwYWNpbmciIHRleHRMZW5ndGg9IjEwNSIgeD0iMTA2IiB5PSIzMjIuMTcxOSI+Ly8gJiMyMDg1NDsmIzIwMTgyOyYjMjUxMDQ7JiMzMjQ4OTsmIzIzNjQ2OyYjMjQ2MTU7PC90ZXh0PjwvZz48IS0tY2xhc3MgRWR1Y2F0aW9uYWxSZXNvdXJjZS0tPjxnIGlkPSJlbGVtX0VkdWNhdGlvbmFsUmVzb3VyY2UiPjxyZWN0IGNvZGVMaW5lPSIzMiIgZmlsbD0iI0YxRjFGMSIgaGVpZ2h0PSIxMDcuOTM3NSIgaWQ9IkVkdWNhdGlvbmFsUmVzb3VyY2UiIHJ4PSIyLjUiIHJ5PSIyLjUiIHN0eWxlPSJzdHJva2U6IzE4MTgxODtzdHJva2Utd2lkdGg6MC41OyIgd2lkdGg9IjExNyIgeD0iNyIgeT0iNjAxIi8+PGVsbGlwc2UgY3g9IjM1LjA1IiBjeT0iNjE3IiBmaWxsPSIjQUREMUIyIiByeD0iMTEiIHJ5PSIxMSIgc3R5bGU9InN0cm9rZTojMTgxODE4O3N0cm9rZS13aWR0aDoxLjA7Ii8+PHBhdGggZD0iTTM4LjY3NSw2MjMgTDM4LjY3NSw2MjEuMjUgTDMzLjM2MjUsNjIxLjI1IFEzMy4zNjI1LDYyMS4yNSAzMy4zNjI1LDYxNy42ODc1IEwzNy42MTI1LDYxNy42ODc1IEwzNy42MTI1LDYxNS45Mzc1IEwzMy4zNjI1LDYxNS45Mzc1IEwzMy4zNjI1LDYxMy40Mzc1IEwzOC42NzUsNjEzLjQzNzUgTDM4LjY3NSw2MTEuNjg3NSBMMzEuNjEyNSw2MTEuNjg3NSBRMzEuNjEyNSw2MTEuNjg3NSAzMS42MTI1LDYyMyBMMzguNjc1LDYyMyBaICIgZmlsbD0iIzAwMDAwMCIvPjx0ZXh0IGZpbGw9IiMwMDAwMDAiIGZvbnQtZmFtaWx5PSJzYW5zLXNlcmlmIiBmb250LXNpemU9IjE0IiBsZW5ndGhBZGp1c3Q9InNwYWNpbmciIHRleHRMZW5ndGg9IjU2IiB4PSI1MS45NSIgeT0iNjIyLjc0MjIiPiYjMjU5NDU7JiMzMjk0NjsmIzM2MTY0OyYjMjgzMDQ7PC90ZXh0PjxsaW5lIHN0eWxlPSJzdHJva2U6IzE4MTgxODtzdHJva2Utd2lkdGg6MC41OyIgeDE9IjgiIHgyPSIxMjMiIHkxPSI2MzMiIHkyPSI2MzMiLz48ZWxsaXBzZSBjeD0iMTgiIGN5PSI2NDUuOTkyMiIgZmlsbD0iIzg0QkU4NCIgcng9IjMiIHJ5PSIzIiBzdHlsZT0ic3Ryb2tlOiMwMzgwNDg7c3Ryb2tlLXdpZHRoOjEuMDsiLz48dGV4dCBmaWxsPSIjMDAwMDAwIiBmb250LWZhbWlseT0ic2Fucy1zZXJpZiIgZm9udC1zaXplPSIxNCIgbGVuZ3RoQWRqdXN0PSJzcGFjaW5nIiB0ZXh0TGVuZ3RoPSI3OSIgeD0iMjciIHk9IjY1MC4yMzQ0Ij4mIzM2MTY0OyYjMjgzMDQ7SUQgKFBLKTwvdGV4dD48bGluZSBzdHlsZT0ic3Ryb2tlOiMxODE4MTg7c3Ryb2tlLXdpZHRoOjEuMDsiIHgxPSI4IiB4Mj0iMTIzIiB5MT0iNjU1Ljk4NDQiIHkyPSI2NTUuOTg0NCIvPjx0ZXh0IGZpbGw9IiMwMDAwMDAiIGZvbnQtZmFtaWx5PSJzYW5zLXNlcmlmIiBmb250LXNpemU9IjE0IiBsZW5ndGhBZGp1c3Q9InNwYWNpbmciIHRleHRMZW5ndGg9IjU2IiB4PSIxMyIgeT0iNjczLjIxODgiPiYjMzYxNjQ7JiMyODMwNDsmIzIxNTE3OyYjMzEyMTY7PC90ZXh0Pjx0ZXh0IGZpbGw9IiMwMDAwMDAiIGZvbnQtZmFtaWx5PSJzYW5zLXNlcmlmIiBmb250LXNpemU9IjE0IiBsZW5ndGhBZGp1c3Q9InNwYWNpbmciIHRleHRMZW5ndGg9IjI4IiB4PSIxMyIgeT0iNjg4LjIwMzEiPiYjMzE4Njc7JiMyMjQxMTs8L3RleHQ+PHRleHQgZmlsbD0iIzAwMDAwMCIgZm9udC1mYW1pbHk9InNhbnMtc2VyaWYiIGZvbnQtc2l6ZT0iMTQiIGxlbmd0aEFkanVzdD0ic3BhY2luZyIgdGV4dExlbmd0aD0iMTA1IiB4PSIxMyIgeT0iNzAzLjE4NzUiPi8vICYjMjA4NTQ7JiMyMDE4MjsmIzM2MTY0OyYjMjgzMDQ7JiMyMzY0NjsmIzI0NjE1OzwvdGV4dD48L2c+PCEtLWNsYXNzIENvdXJzZVB1cmNoYXNlLS0+PGcgaWQ9ImVsZW1fQ291cnNlUHVyY2hhc2UiPjxyZWN0IGNvZGVMaW5lPSI0MCIgZmlsbD0iI0YxRjFGMSIgaGVpZ2h0PSIxMjIuOTIxOSIgaWQ9IkNvdXJzZVB1cmNoYXNlIiByeD0iMi41IiByeT0iMi41IiBzdHlsZT0ic3Ryb2tlOiMxODE4MTg7c3Ryb2tlLXdpZHRoOjAuNTsiIHdpZHRoPSIxNDUiIHg9IjI1MiIgeT0iMjA1Ii8+PGVsbGlwc2UgY3g9IjI4MC4wNSIgY3k9IjIyMSIgZmlsbD0iI0FERDFCMiIgcng9IjExIiByeT0iMTEiIHN0eWxlPSJzdHJva2U6IzE4MTgxODtzdHJva2Utd2lkdGg6MS4wOyIvPjxwYXRoIGQ9Ik0yODMuNjc1LDIyNyBMMjgzLjY3NSwyMjUuMjUgTDI3OC4zNjI1LDIyNS4yNSBRMjc4LjM2MjUsMjI1LjI1IDI3OC4zNjI1LDIyMS42ODc1IEwyODIuNjEyNSwyMjEuNjg3NSBMMjgyLjYxMjUsMjE5LjkzNzUgTDI3OC4zNjI1LDIxOS45Mzc1IEwyNzguMzYyNSwyMTcuNDM3NSBMMjgzLjY3NSwyMTcuNDM3NSBMMjgzLjY3NSwyMTUuNjg3NSBMMjc2LjYxMjUsMjE1LjY4NzUgUTI3Ni42MTI1LDIxNS42ODc1IDI3Ni42MTI1LDIyNyBMMjgzLjY3NSwyMjcgWiAiIGZpbGw9IiMwMDAwMDAiLz48dGV4dCBmaWxsPSIjMDAwMDAwIiBmb250LWZhbWlseT0ic2Fucy1zZXJpZiIgZm9udC1zaXplPSIxNCIgbGVuZ3RoQWRqdXN0PSJzcGFjaW5nIiB0ZXh0TGVuZ3RoPSI4NCIgeD0iMjk2Ljk1IiB5PSIyMjYuNzQyMiI+JiMzNTgzODsmIzMxMjQzOyYjMzYxNDE7JiMyMDA4MDsmIzM1NzYwOyYjMjQ0MDU7PC90ZXh0PjxsaW5lIHN0eWxlPSJzdHJva2U6IzE4MTgxODtzdHJva2Utd2lkdGg6MC41OyIgeDE9IjI1MyIgeDI9IjM5NiIgeTE9IjIzNyIgeTI9IjIzNyIvPjxlbGxpcHNlIGN4PSIyNjMiIGN5PSIyNDkuOTkyMiIgZmlsbD0iIzg0QkU4NCIgcng9IjMiIHJ5PSIzIiBzdHlsZT0ic3Ryb2tlOiMwMzgwNDg7c3Ryb2tlLXdpZHRoOjEuMDsiLz48dGV4dCBmaWxsPSIjMDAwMDAwIiBmb250LWZhbWlseT0ic2Fucy1zZXJpZiIgZm9udC1zaXplPSIxNCIgbGVuZ3RoQWRqdXN0PSJzcGFjaW5nIiB0ZXh0TGVuZ3RoPSI3OSIgeD0iMjcyIiB5PSIyNTQuMjM0NCI+JiMzNTc2MDsmIzI0NDA1O0lEIChQSyk8L3RleHQ+PGxpbmUgc3R5bGU9InN0cm9rZTojMTgxODE4O3N0cm9rZS13aWR0aDoxLjA7IiB4MT0iMjUzIiB4Mj0iMzk2IiB5MT0iMjU5Ljk4NDQiIHkyPSIyNTkuOTg0NCIvPjx0ZXh0IGZpbGw9IiMwMDAwMDAiIGZvbnQtZmFtaWx5PSJzYW5zLXNlcmlmIiBmb250LXNpemU9IjE0IiBsZW5ndGhBZGp1c3Q9InNwYWNpbmciIHRleHRMZW5ndGg9Ijc5IiB4PSIyNTgiIHk9IjI3Ny4yMTg4Ij4mIzI5OTkyOyYjMjUxNDM7SUQgKEZLKTwvdGV4dD48dGV4dCBmaWxsPSIjMDAwMDAwIiBmb250LWZhbWlseT0ic2Fucy1zZXJpZiIgZm9udC1zaXplPSIxNCIgbGVuZ3RoQWRqdXN0PSJzcGFjaW5nIiB0ZXh0TGVuZ3RoPSI3OSIgeD0iMjU4IiB5PSIyOTIuMjAzMSI+JiMzNTgzODsmIzMxMjQzO0lEIChGSyk8L3RleHQ+PHRleHQgZmlsbD0iIzAwMDAwMCIgZm9udC1mYW1pbHk9InNhbnMtc2VyaWYiIGZvbnQtc2l6ZT0iMTQiIGxlbmd0aEFkanVzdD0ic3BhY2luZyIgdGV4dExlbmd0aD0iNTYiIHg9IjI1OCIgeT0iMzA3LjE4NzUiPiYjMjAxODQ7JiMyNzQ1NDsmIzI5MzY2OyYjMjQ1Nzc7PC90ZXh0Pjx0ZXh0IGZpbGw9IiMwMDAwMDAiIGZvbnQtZmFtaWx5PSJzYW5zLXNlcmlmIiBmb250LXNpemU9IjE0IiBsZW5ndGhBZGp1c3Q9InNwYWNpbmciIHRleHRMZW5ndGg9IjEzMyIgeD0iMjU4IiB5PSIzMjIuMTcxOSI+Ly8gJiMyMDg1NDsmIzIwMTgyOyYjMzYxNDE7JiMyMDA4MDsmIzM1NzYwOyYjMjQ0MDU7JiMyMzY0NjsmIzI0NjE1OzwvdGV4dD48L2c+PCEtLWxpbmsgVXNlciB0byBDb3Vyc2UtLT48ZyBpZD0ibGlua19Vc2VyX0NvdXJzZSI+PHBhdGggY29kZUxpbmU9IjUwIiBkPSJNOTkuNzgsMTI4LjUxIEM4MS42MywxNTAuNjQgNjMuOTQsMTc3LjIgNTQuNSwyMDUgQzMyLjQ0LDI2OS45NyA0MC42MiwzNDkuNDQgNTAuODEsNDAyLjk4ICIgZmlsbD0ibm9uZSIgaWQ9IlVzZXItQ291cnNlIiBzdHlsZT0ic3Ryb2tlOiMxODE4MTg7c3Ryb2tlLXdpZHRoOjEuMDsiLz48dGV4dCBmaWxsPSIjMDAwMDAwIiBmb250LWZhbWlseT0ic2Fucy1zZXJpZiIgZm9udC1zaXplPSIxMyIgbGVuZ3RoQWRqdXN0PSJzcGFjaW5nIiB0ZXh0TGVuZ3RoPSIyNiIgeD0iNTUuNSIgeT0iMjcyLjI4OTEiPiYjMzY4NzM7JiMyMDQ2Mjs8L3RleHQ+PC9nPjwhLS1saW5rIFVzZXIgdG8gR3JhZGUtLT48ZyBpZD0ibGlua19Vc2VyX0dyYWRlIj48cGF0aCBjb2RlTGluZT0iNTEiIGQ9Ik0xNTguNSwxMzAuMTcgQzE1OC41LDE1My45IDE1OC41LDE4MS4wNSAxNTguNSwyMDQuNzggIiBmaWxsPSJub25lIiBpZD0iVXNlci1HcmFkZSIgc3R5bGU9InN0cm9rZTojMTgxODE4O3N0cm9rZS13aWR0aDoxLjA7Ii8+PHRleHQgZmlsbD0iIzAwMDAwMCIgZm9udC1mYW1pbHk9InNhbnMtc2VyaWYiIGZvbnQtc2l6ZT0iMTMiIGxlbmd0aEFkanVzdD0ic3BhY2luZyIgdGV4dExlbmd0aD0iMjYiIHg9IjE1OS41IiB5PSIxNzMuMjg5MSI+JiMyNTMxNzsmIzI2Mzc3OzwvdGV4dD48L2c+PCEtLWxpbmsgVXNlciB0byBDb3Vyc2VQdXJjaGFzZS0tPjxnIGlkPSJsaW5rX1VzZXJfQ291cnNlUHVyY2hhc2UiPjxwYXRoIGNvZGVMaW5lPSI1MiIgZD0iTTIwOS44OSwxMzAuMTcgQzIyOS45OCwxNTMuOSAyNTIuOTcsMTgxLjA1IDI3My4wNywyMDQuNzggIiBmaWxsPSJub25lIiBpZD0iVXNlci1Db3Vyc2VQdXJjaGFzZSIgc3R5bGU9InN0cm9rZTojMTgxODE4O3N0cm9rZS13aWR0aDoxLjA7Ii8+PHRleHQgZmlsbD0iIzAwMDAwMCIgZm9udC1mYW1pbHk9InNhbnMtc2VyaWYiIGZvbnQtc2l6ZT0iMTMiIGxlbmd0aEFkanVzdD0ic3BhY2luZyIgdGV4dExlbmd0aD0iMjYiIHg9IjI0Ni41IiB5PSIxNzMuMjg5MSI+JiMzNjE0MTsmIzIwMDgwOzwvdGV4dD48L2c+PCEtLWxpbmsgQ291cnNlIHRvIEVkdWNhdGlvbmFsUmVzb3VyY2UtLT48ZyBpZD0ibGlua19Db3Vyc2VfRWR1Y2F0aW9uYWxSZXNvdXJjZSI+PHBhdGggY29kZUxpbmU9IjUzIiBkPSJNNjUuNSw1MjYuMTggQzY1LjUsNTUwLjE4IDY1LjUsNTc3LjUyIDY1LjUsNjAwLjc0ICIgZmlsbD0ibm9uZSIgaWQ9IkNvdXJzZS1FZHVjYXRpb25hbFJlc291cmNlIiBzdHlsZT0ic3Ryb2tlOiMxODE4MTg7c3Ryb2tlLXdpZHRoOjEuMDsiLz48dGV4dCBmaWxsPSIjMDAwMDAwIiBmb250LWZhbWlseT0ic2Fucy1zZXJpZiIgZm9udC1zaXplPSIxMyIgbGVuZ3RoQWRqdXN0PSJzcGFjaW5nIiB0ZXh0TGVuZ3RoPSIyNiIgeD0iNjYuNSIgeT0iNTY5LjI4OTEiPiYjMjEyNTM7JiMyMTU0Nzs8L3RleHQ+PC9nPjwhLS1saW5rIENvdXJzZVB1cmNoYXNlIHRvIENvdXJzZS0tPjxnIGlkPSJsaW5rX0NvdXJzZVB1cmNoYXNlX0NvdXJzZSI+PHBhdGggY29kZUxpbmU9IjU0IiBkPSJNMjUxLjY2LDMyMi42MiBDMjExLjQyLDM1My4wOCAxNjIuMDcsMzkwLjQyIDEyNC4zLDQxOSAiIGZpbGw9Im5vbmUiIGlkPSJDb3Vyc2VQdXJjaGFzZS1Db3Vyc2UiIHN0eWxlPSJzdHJva2U6IzE4MTgxODtzdHJva2Utd2lkdGg6MS4wOyIvPjx0ZXh0IGZpbGw9IiMwMDAwMDAiIGZvbnQtZmFtaWx5PSJzYW5zLXNlcmlmIiBmb250LXNpemU9IjEzIiBsZW5ndGhBZGp1c3Q9InNwYWNpbmciIHRleHRMZW5ndGg9IjI2IiB4PSIyMDQuNSIgeT0iMzcxLjI4OTEiPiYjMjEyNTM7JiMyNTMyNDs8L3RleHQ+PC9nPjwhLS1TUkM9W2JQOUZJbTkxNkNSbHlvYjZCbktYS2FVSEJjS0hOSUplMG9vd2FIMEFoWHVZMGZLS1JHaXNvaDA4WVEwcXFiS3BCTGtxQnBEX3JjX0hFQUZoa2pjWG9wQnBsQ19FeHR0VTZMVE90ZXo0UEhZODlZQTllbk5lenVsTHNYZm1wUEhNeElNbTBCNS1YdGU1aDlUSF9taDhsMDNUekJmQXlYemtBMmJtSnY3WnkxWDBrMG81a2hxMTV1Q3hJcXBuVURYN1k1WXhPNmxTb0Q2N0QxU3hrQXVEQ3Blb2tjcGh6S0FTeElCWlBjbmtiS2NnMGF3MG5KQ1IwcmZMRU15emJlbWh5ZldlVDBUSFk4bjhBeXFIakZ2Q0F2VGlXSndEdU1GOVpYaXhWLTU4TmdGNjJ5VGpuUU5tWDJSYWtWYjZ1WU9OZm9zOUZTeGRJQjVmZnVmWnZiMkJqc1JjcFVvU2FZLURpbUZYUDRYQUg2OUh3TjFOTGJaa2E5TVJjdm92a01aYmZZcTNiek1Qa0NCbW50SkR6cGhnREtzellWajVzd0kzMzdpV0pJVkV3Xy1TMEo5QWYzUVdQcnNJSWl5cVA0REVzeEJVTkJQRHNtUlczeXBaY0xveTNtdkoxVklqTXhndThIeWF3WEV2QnBaaUxsUy1BNjFXVjBucHAxa2wzLUJwQkRQVVdVRHRFdnl2WTVoeDBHMDBdLS0+PC9nPjwvc3ZnPg==;" vertex="1" parent="1">
            <mxGeometry x="-1830" y="2940" width="404" height="715" as="geometry" />
          </mxCell>
        </UserObject>
      </root>
    </mxGraphModel>
  </diagram>
</mxfile>
